<svg width="293" height="200" viewBox="0 0 293 200" fill="none" xmlns="http://www.w3.org/2000/svg">
<rect width="293" height="200" fill="#0052CC"/>
<path d="M18.6418 68.4208C18.6418 61.2963 25.3576 55.5208 33.6418 55.5208H103.642C111.926 55.5208 118.642 61.2963 118.642 68.4208V128.621C118.642 135.745 111.926 141.521 103.642 141.521H33.6418C25.3576 141.521 18.6418 135.745 18.6418 128.621V68.4208Z" fill="white"/>
<path d="M61.0988 137.628L42.1425 147.5V147.214H42V84.119L104 52.5V71.9578L61.0988 93.8479V98.4262L104 76.25V91.7018L61.0988 113.592V137.628Z" fill="#0052CC"/>
<path d="M127.258 102V83.7033H138.885V85.8834H129.957V91.7227H138.34V93.9028H129.957V102H127.258ZM141.09 102V89.3351H143.633V92.3715H143.373C143.65 91.3334 144.143 90.5462 144.853 90.0098C145.579 89.4735 146.54 89.1621 147.734 89.0756L148.59 89.0236L148.772 91.2556L147.189 91.4113C146.064 91.5151 145.207 91.8698 144.619 92.4754C144.031 93.0809 143.737 93.9114 143.737 94.9668V102H141.09ZM156.537 102.234C155.153 102.234 153.959 101.974 152.955 101.455C151.969 100.919 151.199 100.166 150.646 99.1971C150.109 98.2109 149.841 97.043 149.841 95.6935C149.841 94.3786 150.109 93.228 150.646 92.2418C151.182 91.2556 151.917 90.4856 152.852 89.932C153.786 89.3783 154.85 89.1015 156.044 89.1015C157.22 89.1015 158.224 89.361 159.054 89.8801C159.902 90.3818 160.551 91.0999 161.001 92.0342C161.451 92.9685 161.676 94.0844 161.676 95.3821V96.2645H151.917V94.6554H159.911L159.47 95.0187C159.47 93.7211 159.184 92.7176 158.613 92.0082C158.042 91.2988 157.22 90.9441 156.148 90.9441C155.334 90.9441 154.642 91.1345 154.071 91.5151C153.518 91.8957 153.094 92.4235 152.8 93.0982C152.506 93.773 152.359 94.5602 152.359 95.4599V95.6156C152.359 96.6191 152.514 97.4669 152.826 98.159C153.154 98.8338 153.63 99.3442 154.253 99.6902C154.876 100.036 155.646 100.209 156.563 100.209C157.29 100.209 157.999 100.097 158.691 99.8719C159.4 99.6297 160.067 99.2577 160.689 98.7559L161.468 100.573C160.897 101.092 160.162 101.498 159.262 101.792C158.362 102.087 157.454 102.234 156.537 102.234ZM170.476 102.234C169.092 102.234 167.898 101.974 166.895 101.455C165.909 100.919 165.139 100.166 164.585 99.1971C164.049 98.2109 163.781 97.043 163.781 95.6935C163.781 94.3786 164.049 93.228 164.585 92.2418C165.121 91.2556 165.857 90.4856 166.791 89.932C167.725 89.3783 168.789 89.1015 169.983 89.1015C171.16 89.1015 172.163 89.361 172.994 89.8801C173.842 90.3818 174.49 91.0999 174.94 92.0342C175.39 92.9685 175.615 94.0844 175.615 95.3821V96.2645H165.857V94.6554H173.85L173.409 95.0187C173.409 93.7211 173.124 92.7176 172.553 92.0082C171.982 91.2988 171.16 90.9441 170.087 90.9441C169.274 90.9441 168.582 91.1345 168.011 91.5151C167.457 91.8957 167.033 92.4235 166.739 93.0982C166.445 93.773 166.298 94.5602 166.298 95.4599V95.6156C166.298 96.6191 166.454 97.4669 166.765 98.159C167.094 98.8338 167.57 99.3442 168.193 99.6902C168.815 100.036 169.585 100.209 170.502 100.209C171.229 100.209 171.938 100.097 172.63 99.8719C173.34 99.6297 174.006 99.2577 174.629 98.7559L175.407 100.573C174.836 101.092 174.101 101.498 173.201 101.792C172.302 102.087 171.393 102.234 170.476 102.234ZM178.758 102V83.7033H190.385V85.8834H181.457V91.7227H189.84V93.9028H181.457V102H178.758ZM197.863 102.234C196.583 102.234 195.476 101.965 194.541 101.429C193.624 100.893 192.906 100.131 192.387 99.1452C191.868 98.159 191.609 96.9998 191.609 95.6675C191.609 94.318 191.868 93.1588 192.387 92.1899C192.906 91.2037 193.624 90.4424 194.541 89.906C195.476 89.3697 196.583 89.1015 197.863 89.1015C199.126 89.1015 200.216 89.3697 201.133 89.906C202.068 90.4424 202.794 91.2037 203.313 92.1899C203.833 93.1761 204.092 94.3353 204.092 95.6675C204.092 96.9998 203.833 98.159 203.313 99.1452C202.794 100.131 202.068 100.893 201.133 101.429C200.216 101.965 199.126 102.234 197.863 102.234ZM197.837 100.209C198.927 100.209 199.801 99.82 200.459 99.0414C201.116 98.2628 201.445 97.1382 201.445 95.6675C201.445 94.1796 201.116 93.055 200.459 92.2937C199.801 91.5324 198.927 91.1518 197.837 91.1518C196.765 91.1518 195.9 91.5324 195.242 92.2937C194.585 93.055 194.256 94.1796 194.256 95.6675C194.256 97.1382 194.585 98.2628 195.242 99.0414C195.9 99.82 196.765 100.209 197.837 100.209ZM211.552 102.234C210.531 102.234 209.674 102.043 208.982 101.663C208.308 101.282 207.797 100.72 207.451 99.9757C207.122 99.2144 206.958 98.2628 206.958 97.1209V89.3351H209.579V97.1468C209.579 97.8216 209.666 98.3839 209.839 98.8338C210.029 99.2836 210.315 99.6124 210.695 99.82C211.093 100.028 211.586 100.131 212.174 100.131C212.832 100.131 213.412 99.9843 213.913 99.6902C214.415 99.3961 214.804 98.9722 215.081 98.4185C215.358 97.8649 215.496 97.2247 215.496 96.498V89.3351H218.118V102H215.574V99.2231H215.912C215.566 100.192 215.012 100.936 214.251 101.455C213.489 101.974 212.59 102.234 211.552 102.234ZM221.812 102V89.3351H224.355V92.0342H224.07C224.45 91.0653 225.047 90.3386 225.86 89.8541C226.673 89.3524 227.608 89.1015 228.663 89.1015C229.667 89.1015 230.497 89.2918 231.155 89.6725C231.829 90.0358 232.331 90.5981 232.66 91.3594C232.989 92.1034 233.153 93.0463 233.153 94.1882V102H230.532V94.344C230.532 93.6173 230.437 93.029 230.246 92.5792C230.056 92.112 229.77 91.766 229.39 91.5411C229.009 91.3161 228.516 91.2037 227.911 91.2037C227.218 91.2037 226.604 91.3507 226.068 91.6449C225.549 91.939 225.142 92.3629 224.848 92.9166C224.571 93.4702 224.433 94.1104 224.433 94.8371V102H221.812ZM241.592 102.234C240.485 102.234 239.507 101.974 238.659 101.455C237.829 100.919 237.18 100.157 236.713 99.1712C236.246 98.1676 236.012 96.9998 236.012 95.6675C236.012 94.3007 236.246 93.1328 236.713 92.1639C237.18 91.195 237.829 90.4424 238.659 89.906C239.507 89.3697 240.485 89.1015 241.592 89.1015C242.699 89.1015 243.651 89.3783 244.447 89.932C245.26 90.4683 245.805 91.195 246.082 92.112H245.796V83.7033H248.418V102H245.848V99.1452H246.108C245.831 100.079 245.286 100.832 244.473 101.403C243.677 101.957 242.717 102.234 241.592 102.234ZM242.267 100.209C243.34 100.209 244.205 99.82 244.862 99.0414C245.52 98.2628 245.848 97.1382 245.848 95.6675C245.848 94.1796 245.52 93.055 244.862 92.2937C244.205 91.5324 243.34 91.1518 242.267 91.1518C241.177 91.1518 240.303 91.5324 239.646 92.2937C238.988 93.055 238.659 94.1796 238.659 95.6675C238.659 97.1382 238.988 98.2628 239.646 99.0414C240.303 99.82 241.177 100.209 242.267 100.209ZM252.098 102V89.3351H254.642V92.3715H254.382C254.659 91.3334 255.152 90.5462 255.861 90.0098C256.588 89.4735 257.548 89.1621 258.742 89.0756L259.599 89.0236L259.78 91.2556L258.197 91.4113C257.073 91.5151 256.216 91.8698 255.628 92.4754C255.04 93.0809 254.745 93.9114 254.745 94.9668V102H252.098ZM263.863 106.671L266.355 101.118V102.234L260.827 89.3351H263.63L267.886 99.8459H267.159L271.467 89.3351H274.166L266.614 106.671H263.863Z" fill="white"/>
<path d="M128.937 121.108C128.28 121.108 127.715 121 127.239 120.784C126.763 120.567 126.392 120.243 126.125 119.811C125.858 119.371 125.714 118.819 125.692 118.156C125.685 117.846 125.682 117.54 125.682 117.237C125.682 116.927 125.685 116.613 125.692 116.296C125.714 115.647 125.858 115.103 126.125 114.663C126.399 114.216 126.774 113.881 127.25 113.658C127.733 113.434 128.295 113.322 128.937 113.322C129.571 113.322 130.126 113.434 130.602 113.658C131.085 113.881 131.463 114.216 131.737 114.663C132.011 115.103 132.155 115.647 132.17 116.296C132.184 116.613 132.191 116.927 132.191 117.237C132.191 117.54 132.184 117.846 132.17 118.156C132.148 118.819 132.004 119.371 131.737 119.811C131.471 120.243 131.099 120.567 130.623 120.784C130.148 121 129.585 121.108 128.937 121.108ZM128.937 119.713C129.355 119.713 129.697 119.587 129.964 119.335C130.238 119.075 130.382 118.664 130.396 118.102C130.411 117.785 130.418 117.489 130.418 117.215C130.418 116.934 130.411 116.639 130.396 116.329C130.389 115.954 130.321 115.647 130.191 115.409C130.061 115.171 129.888 114.998 129.672 114.89C129.463 114.775 129.218 114.717 128.937 114.717C128.655 114.717 128.407 114.775 128.19 114.89C127.974 114.998 127.801 115.171 127.671 115.409C127.549 115.647 127.48 115.954 127.466 116.329C127.459 116.639 127.455 116.934 127.455 117.215C127.455 117.489 127.459 117.785 127.466 118.102C127.487 118.664 127.632 119.075 127.898 119.335C128.165 119.587 128.511 119.713 128.937 119.713ZM133.674 121C133.602 121 133.541 120.975 133.49 120.924C133.44 120.874 133.415 120.809 133.415 120.73V115.647C133.415 115.568 133.44 115.503 133.49 115.453C133.541 115.402 133.602 115.377 133.674 115.377H134.734C134.813 115.377 134.878 115.402 134.929 115.453C134.979 115.503 135.004 115.568 135.004 115.647V116.069C135.192 115.838 135.433 115.647 135.729 115.496C136.024 115.344 136.385 115.269 136.81 115.269C137.236 115.269 137.607 115.366 137.924 115.561C138.248 115.748 138.501 116.026 138.681 116.393C138.868 116.754 138.962 117.194 138.962 117.713V120.73C138.962 120.809 138.933 120.874 138.876 120.924C138.825 120.975 138.764 121 138.692 121H137.546C137.466 121 137.401 120.975 137.351 120.924C137.3 120.874 137.275 120.809 137.275 120.73V117.778C137.275 117.395 137.181 117.1 136.994 116.891C136.814 116.675 136.547 116.566 136.194 116.566C135.855 116.566 135.585 116.675 135.383 116.891C135.181 117.1 135.08 117.395 135.08 117.778V120.73C135.08 120.809 135.055 120.874 135.004 120.924C134.954 120.975 134.893 121 134.82 121H133.674ZM142.766 121.108C141.937 121.108 141.278 120.877 140.788 120.416C140.305 119.955 140.049 119.284 140.02 118.405C140.02 118.347 140.02 118.271 140.02 118.178C140.02 118.077 140.02 117.997 140.02 117.94C140.049 117.385 140.175 116.909 140.398 116.512C140.622 116.109 140.935 115.802 141.339 115.593C141.743 115.377 142.215 115.269 142.756 115.269C143.361 115.269 143.866 115.395 144.27 115.647C144.68 115.892 144.987 116.231 145.189 116.664C145.398 117.089 145.502 117.579 145.502 118.134V118.383C145.502 118.455 145.473 118.516 145.416 118.567C145.365 118.617 145.304 118.643 145.232 118.643H141.696C141.696 118.65 141.696 118.664 141.696 118.686C141.696 118.7 141.696 118.715 141.696 118.729C141.703 118.96 141.746 119.172 141.826 119.367C141.912 119.555 142.031 119.706 142.183 119.821C142.341 119.937 142.529 119.994 142.745 119.994C142.925 119.994 143.073 119.969 143.188 119.919C143.304 119.868 143.397 119.807 143.469 119.735C143.549 119.663 143.606 119.601 143.642 119.551C143.707 119.479 143.758 119.436 143.794 119.421C143.837 119.4 143.902 119.389 143.988 119.389H145.113C145.185 119.389 145.243 119.41 145.286 119.454C145.337 119.49 145.358 119.544 145.351 119.616C145.344 119.731 145.282 119.875 145.167 120.048C145.059 120.214 144.897 120.38 144.68 120.546C144.464 120.704 144.194 120.838 143.869 120.946C143.552 121.054 143.185 121.108 142.766 121.108ZM141.696 117.659H143.815V117.637C143.815 117.377 143.772 117.154 143.686 116.967C143.606 116.772 143.487 116.62 143.329 116.512C143.17 116.404 142.979 116.35 142.756 116.35C142.532 116.35 142.341 116.404 142.183 116.512C142.024 116.62 141.901 116.772 141.815 116.967C141.736 117.154 141.696 117.377 141.696 117.637V117.659ZM149.24 121C149.161 121 149.096 120.975 149.046 120.924C148.995 120.874 148.97 120.809 148.97 120.73V113.593C148.97 113.513 148.995 113.448 149.046 113.398C149.096 113.348 149.161 113.322 149.24 113.322H150.408C150.48 113.322 150.541 113.348 150.592 113.398C150.642 113.448 150.668 113.513 150.668 113.593V116.026C150.862 115.795 151.1 115.611 151.381 115.474C151.662 115.337 152.001 115.269 152.398 115.269C152.823 115.269 153.198 115.366 153.522 115.561C153.854 115.748 154.114 116.026 154.301 116.393C154.488 116.754 154.582 117.194 154.582 117.713V120.73C154.582 120.809 154.557 120.874 154.506 120.924C154.456 120.975 154.391 121 154.312 121H153.133C153.061 121 153 120.975 152.949 120.924C152.899 120.874 152.874 120.809 152.874 120.73V117.778C152.874 117.395 152.78 117.1 152.592 116.891C152.405 116.675 152.138 116.566 151.792 116.566C151.453 116.566 151.179 116.675 150.97 116.891C150.769 117.1 150.668 117.395 150.668 117.778V120.73C150.668 120.809 150.642 120.874 150.592 120.924C150.541 120.975 150.48 121 150.408 121H149.24ZM157.942 121.108C157.524 121.108 157.152 121.014 156.828 120.827C156.511 120.632 156.262 120.355 156.082 119.994C155.909 119.627 155.822 119.183 155.822 118.664V115.647C155.822 115.568 155.847 115.503 155.898 115.453C155.948 115.402 156.01 115.377 156.082 115.377H157.228C157.307 115.377 157.372 115.402 157.423 115.453C157.473 115.503 157.498 115.568 157.498 115.647V118.599C157.498 119.407 157.852 119.811 158.558 119.811C158.897 119.811 159.164 119.706 159.358 119.497C159.56 119.281 159.661 118.981 159.661 118.599V115.647C159.661 115.568 159.686 115.503 159.737 115.453C159.787 115.402 159.852 115.377 159.931 115.377H161.078C161.15 115.377 161.211 115.402 161.261 115.453C161.312 115.503 161.337 115.568 161.337 115.647V120.73C161.337 120.809 161.312 120.874 161.261 120.924C161.211 120.975 161.15 121 161.078 121H160.018C159.939 121 159.874 120.975 159.823 120.924C159.773 120.874 159.748 120.809 159.748 120.73V120.308C159.56 120.567 159.319 120.766 159.023 120.903C158.727 121.04 158.367 121.108 157.942 121.108ZM165.964 121.108C165.553 121.108 165.21 121.04 164.937 120.903C164.663 120.758 164.439 120.578 164.266 120.362V120.73C164.266 120.809 164.241 120.874 164.19 120.924C164.14 120.975 164.075 121 163.996 121H162.968C162.889 121 162.824 120.975 162.774 120.924C162.723 120.874 162.698 120.809 162.698 120.73V113.593C162.698 113.513 162.723 113.448 162.774 113.398C162.824 113.348 162.889 113.322 162.968 113.322H164.082C164.154 113.322 164.216 113.348 164.266 113.398C164.317 113.448 164.342 113.513 164.342 113.593V115.95C164.522 115.748 164.745 115.586 165.012 115.463C165.279 115.334 165.596 115.269 165.964 115.269C166.339 115.269 166.663 115.334 166.937 115.463C167.218 115.586 167.456 115.763 167.651 115.993C167.845 116.217 167.993 116.484 168.094 116.793C168.202 117.103 168.26 117.446 168.267 117.821C168.274 117.951 168.278 118.073 168.278 118.188C168.278 118.297 168.274 118.419 168.267 118.556C168.253 118.938 168.191 119.288 168.083 119.605C167.982 119.915 167.835 120.185 167.64 120.416C167.452 120.64 167.218 120.813 166.937 120.935C166.663 121.05 166.339 121.108 165.964 121.108ZM165.477 119.811C165.751 119.811 165.967 119.753 166.126 119.637C166.285 119.515 166.396 119.356 166.461 119.162C166.533 118.967 166.577 118.754 166.591 118.524C166.605 118.3 166.605 118.077 166.591 117.853C166.577 117.623 166.533 117.41 166.461 117.215C166.396 117.021 166.285 116.866 166.126 116.75C165.967 116.628 165.751 116.566 165.477 116.566C165.218 116.566 165.005 116.624 164.839 116.739C164.681 116.855 164.558 117.003 164.472 117.183C164.392 117.356 164.349 117.543 164.342 117.745C164.335 117.875 164.331 118.008 164.331 118.145C164.331 118.282 164.335 118.419 164.342 118.556C164.356 118.772 164.399 118.974 164.472 119.162C164.544 119.349 164.663 119.504 164.828 119.627C164.994 119.749 165.21 119.811 165.477 119.811ZM172.201 121C172.122 121 172.057 120.975 172.006 120.924C171.956 120.874 171.93 120.809 171.93 120.73V113.701C171.93 113.622 171.956 113.557 172.006 113.506C172.057 113.456 172.122 113.43 172.201 113.43H177.099C177.179 113.43 177.244 113.456 177.294 113.506C177.345 113.557 177.37 113.622 177.37 113.701V114.566C177.37 114.638 177.345 114.699 177.294 114.75C177.244 114.8 177.179 114.825 177.099 114.825H173.596V116.523H176.862C176.941 116.523 177.006 116.548 177.056 116.599C177.107 116.649 177.132 116.714 177.132 116.793V117.594C177.132 117.666 177.107 117.727 177.056 117.778C177.006 117.828 176.941 117.853 176.862 117.853H173.596V119.605H177.186C177.265 119.605 177.33 119.63 177.381 119.681C177.431 119.731 177.456 119.796 177.456 119.875V120.73C177.456 120.809 177.431 120.874 177.381 120.924C177.33 120.975 177.265 121 177.186 121H172.201ZM178.882 121C178.81 121 178.749 120.975 178.699 120.924C178.648 120.874 178.623 120.809 178.623 120.73V115.647C178.623 115.568 178.648 115.503 178.699 115.453C178.749 115.402 178.81 115.377 178.882 115.377H179.942C180.021 115.377 180.086 115.402 180.137 115.453C180.187 115.503 180.212 115.568 180.212 115.647V116.069C180.4 115.838 180.641 115.647 180.937 115.496C181.233 115.344 181.593 115.269 182.018 115.269C182.444 115.269 182.815 115.366 183.132 115.561C183.457 115.748 183.709 116.026 183.889 116.393C184.077 116.754 184.17 117.194 184.17 117.713V120.73C184.17 120.809 184.141 120.874 184.084 120.924C184.033 120.975 183.972 121 183.9 121H182.754C182.674 121 182.609 120.975 182.559 120.924C182.509 120.874 182.483 120.809 182.483 120.73V117.778C182.483 117.395 182.39 117.1 182.202 116.891C182.022 116.675 181.755 116.566 181.402 116.566C181.063 116.566 180.793 116.675 180.591 116.891C180.389 117.1 180.288 117.395 180.288 117.778V120.73C180.288 120.809 180.263 120.874 180.212 120.924C180.162 120.975 180.101 121 180.029 121H178.882ZM187.553 121.108C187.192 121.108 186.872 121.05 186.59 120.935C186.309 120.813 186.071 120.64 185.877 120.416C185.682 120.185 185.534 119.915 185.433 119.605C185.332 119.288 185.271 118.938 185.25 118.556C185.242 118.419 185.239 118.297 185.239 118.188C185.239 118.073 185.242 117.951 185.25 117.821C185.264 117.446 185.322 117.103 185.423 116.793C185.531 116.484 185.679 116.217 185.866 115.993C186.061 115.763 186.299 115.586 186.58 115.463C186.868 115.334 187.192 115.269 187.553 115.269C187.928 115.269 188.249 115.334 188.515 115.463C188.782 115.586 189.002 115.748 189.175 115.95V113.593C189.175 113.513 189.2 113.448 189.251 113.398C189.301 113.348 189.366 113.322 189.445 113.322H190.559C190.631 113.322 190.692 113.348 190.743 113.398C190.793 113.448 190.819 113.513 190.819 113.593V120.73C190.819 120.809 190.793 120.874 190.743 120.924C190.692 120.975 190.631 121 190.559 121H189.521C189.449 121 189.388 120.975 189.337 120.924C189.287 120.874 189.261 120.809 189.261 120.73V120.362C189.081 120.578 188.854 120.758 188.58 120.903C188.306 121.04 187.964 121.108 187.553 121.108ZM188.05 119.811C188.317 119.811 188.53 119.749 188.688 119.627C188.854 119.504 188.973 119.349 189.045 119.162C189.124 118.974 189.168 118.772 189.175 118.556C189.189 118.419 189.197 118.282 189.197 118.145C189.197 118.008 189.189 117.875 189.175 117.745C189.168 117.543 189.124 117.356 189.045 117.183C188.966 117.003 188.843 116.855 188.678 116.739C188.519 116.624 188.31 116.566 188.05 116.566C187.776 116.566 187.56 116.628 187.401 116.75C187.243 116.866 187.128 117.021 187.055 117.215C186.991 117.41 186.951 117.623 186.937 117.853C186.915 118.077 186.915 118.3 186.937 118.524C186.951 118.754 186.991 118.967 187.055 119.162C187.128 119.356 187.243 119.515 187.401 119.637C187.56 119.753 187.776 119.811 188.05 119.811ZM192.463 121C192.384 121 192.319 120.975 192.268 120.924C192.218 120.874 192.193 120.809 192.193 120.73V113.593C192.193 113.513 192.218 113.448 192.268 113.398C192.319 113.348 192.384 113.322 192.463 113.322H193.544C193.616 113.322 193.678 113.348 193.728 113.398C193.779 113.448 193.804 113.513 193.804 113.593V120.73C193.804 120.809 193.779 120.874 193.728 120.924C193.678 120.975 193.616 121 193.544 121H192.463ZM197.679 121.108C196.85 121.108 196.191 120.877 195.701 120.416C195.218 119.955 194.962 119.284 194.933 118.405C194.933 118.347 194.933 118.271 194.933 118.178C194.933 118.077 194.933 117.997 194.933 117.94C194.962 117.385 195.088 116.909 195.311 116.512C195.535 116.109 195.848 115.802 196.252 115.593C196.656 115.377 197.128 115.269 197.669 115.269C198.274 115.269 198.779 115.395 199.183 115.647C199.593 115.892 199.9 116.231 200.102 116.664C200.311 117.089 200.415 117.579 200.415 118.134V118.383C200.415 118.455 200.386 118.516 200.329 118.567C200.278 118.617 200.217 118.643 200.145 118.643H196.609C196.609 118.65 196.609 118.664 196.609 118.686C196.609 118.7 196.609 118.715 196.609 118.729C196.616 118.96 196.659 119.172 196.739 119.367C196.825 119.555 196.944 119.706 197.095 119.821C197.254 119.937 197.442 119.994 197.658 119.994C197.838 119.994 197.986 119.969 198.101 119.919C198.217 119.868 198.31 119.807 198.382 119.735C198.462 119.663 198.519 119.601 198.555 119.551C198.62 119.479 198.671 119.436 198.707 119.421C198.75 119.4 198.815 119.389 198.901 119.389H200.026C200.098 119.389 200.156 119.41 200.199 119.454C200.249 119.49 200.271 119.544 200.264 119.616C200.257 119.731 200.195 119.875 200.08 120.048C199.972 120.214 199.81 120.38 199.593 120.546C199.377 120.704 199.107 120.838 198.782 120.946C198.465 121.054 198.098 121.108 197.679 121.108ZM196.609 117.659H198.728V117.637C198.728 117.377 198.685 117.154 198.599 116.967C198.519 116.772 198.4 116.62 198.242 116.512C198.083 116.404 197.892 116.35 197.669 116.35C197.445 116.35 197.254 116.404 197.095 116.512C196.937 116.62 196.814 116.772 196.728 116.967C196.649 117.154 196.609 117.377 196.609 117.637V117.659ZM203.713 121.108C203.266 121.108 202.88 121.058 202.556 120.957C202.239 120.849 201.979 120.719 201.777 120.567C201.583 120.416 201.435 120.265 201.334 120.113C201.24 119.955 201.19 119.821 201.183 119.713C201.175 119.634 201.201 119.569 201.258 119.519C201.316 119.468 201.374 119.443 201.431 119.443H202.48C202.502 119.443 202.524 119.446 202.545 119.454C202.567 119.461 202.588 119.479 202.61 119.508C202.704 119.573 202.801 119.648 202.902 119.735C203.003 119.814 203.118 119.883 203.248 119.94C203.385 119.998 203.554 120.027 203.756 120.027C203.994 120.027 204.196 119.98 204.362 119.886C204.528 119.785 204.611 119.645 204.611 119.464C204.611 119.335 204.571 119.227 204.492 119.14C204.419 119.054 204.279 118.974 204.07 118.902C203.861 118.83 203.551 118.751 203.14 118.664C202.751 118.578 202.419 118.462 202.145 118.318C201.871 118.174 201.666 117.994 201.529 117.778C201.392 117.554 201.323 117.287 201.323 116.977C201.323 116.696 201.41 116.426 201.583 116.166C201.763 115.907 202.026 115.694 202.372 115.528C202.718 115.355 203.151 115.269 203.67 115.269C204.066 115.269 204.412 115.319 204.708 115.42C205.011 115.514 205.263 115.636 205.465 115.788C205.667 115.932 205.818 116.083 205.919 116.242C206.027 116.393 206.085 116.527 206.092 116.642C206.099 116.714 206.078 116.775 206.027 116.826C205.977 116.876 205.919 116.902 205.854 116.902H204.892C204.856 116.902 204.823 116.898 204.794 116.891C204.766 116.876 204.74 116.858 204.719 116.837C204.632 116.779 204.542 116.714 204.448 116.642C204.362 116.563 204.257 116.494 204.135 116.437C204.012 116.379 203.854 116.35 203.659 116.35C203.421 116.35 203.237 116.404 203.107 116.512C202.985 116.613 202.924 116.743 202.924 116.902C202.924 117.003 202.956 117.096 203.021 117.183C203.086 117.269 203.219 117.349 203.421 117.421C203.623 117.493 203.929 117.568 204.34 117.648C204.83 117.734 205.22 117.864 205.508 118.037C205.796 118.21 206.002 118.412 206.124 118.643C206.254 118.866 206.319 119.108 206.319 119.367C206.319 119.706 206.218 120.009 206.016 120.275C205.814 120.535 205.519 120.74 205.13 120.892C204.748 121.036 204.275 121.108 203.713 121.108ZM209.574 121.108C209.127 121.108 208.741 121.058 208.417 120.957C208.1 120.849 207.84 120.719 207.638 120.567C207.444 120.416 207.296 120.265 207.195 120.113C207.101 119.955 207.051 119.821 207.044 119.713C207.036 119.634 207.062 119.569 207.119 119.519C207.177 119.468 207.235 119.443 207.292 119.443H208.341C208.363 119.443 208.384 119.446 208.406 119.454C208.428 119.461 208.449 119.479 208.471 119.508C208.565 119.573 208.662 119.648 208.763 119.735C208.864 119.814 208.979 119.883 209.109 119.94C209.246 119.998 209.415 120.027 209.617 120.027C209.855 120.027 210.057 119.98 210.223 119.886C210.389 119.785 210.471 119.645 210.471 119.464C210.471 119.335 210.432 119.227 210.352 119.14C210.28 119.054 210.14 118.974 209.931 118.902C209.722 118.83 209.412 118.751 209.001 118.664C208.611 118.578 208.28 118.462 208.006 118.318C207.732 118.174 207.527 117.994 207.39 117.778C207.253 117.554 207.184 117.287 207.184 116.977C207.184 116.696 207.271 116.426 207.444 116.166C207.624 115.907 207.887 115.694 208.233 115.528C208.579 115.355 209.012 115.269 209.531 115.269C209.927 115.269 210.273 115.319 210.569 115.42C210.872 115.514 211.124 115.636 211.326 115.788C211.528 115.932 211.679 116.083 211.78 116.242C211.888 116.393 211.946 116.527 211.953 116.642C211.96 116.714 211.938 116.775 211.888 116.826C211.838 116.876 211.78 116.902 211.715 116.902H210.753C210.717 116.902 210.684 116.898 210.655 116.891C210.626 116.876 210.601 116.858 210.58 116.837C210.493 116.779 210.403 116.714 210.309 116.642C210.223 116.563 210.118 116.494 209.996 116.437C209.873 116.379 209.714 116.35 209.52 116.35C209.282 116.35 209.098 116.404 208.968 116.512C208.846 116.613 208.785 116.743 208.785 116.902C208.785 117.003 208.817 117.096 208.882 117.183C208.947 117.269 209.08 117.349 209.282 117.421C209.484 117.493 209.79 117.568 210.201 117.648C210.691 117.734 211.081 117.864 211.369 118.037C211.657 118.21 211.863 118.412 211.985 118.643C212.115 118.866 212.18 119.108 212.18 119.367C212.18 119.706 212.079 120.009 211.877 120.275C211.675 120.535 211.38 120.74 210.99 120.892C210.608 121.036 210.136 121.108 209.574 121.108ZM215.864 121C215.792 121 215.731 120.975 215.68 120.924C215.63 120.874 215.605 120.809 215.605 120.73V115.647C215.605 115.575 215.63 115.514 215.68 115.463C215.731 115.406 215.792 115.377 215.864 115.377H216.924C216.996 115.377 217.057 115.406 217.108 115.463C217.165 115.514 217.194 115.575 217.194 115.647V116.08C217.374 115.856 217.594 115.683 217.854 115.561C218.121 115.438 218.427 115.377 218.773 115.377H219.238C219.31 115.377 219.371 115.402 219.422 115.453C219.472 115.503 219.498 115.568 219.498 115.647V116.577C219.498 116.657 219.472 116.721 219.422 116.772C219.371 116.822 219.31 116.848 219.238 116.848H218.286C217.969 116.848 217.72 116.938 217.54 117.118C217.36 117.291 217.27 117.54 217.27 117.864V120.73C217.27 120.809 217.245 120.874 217.194 120.924C217.144 120.975 217.079 121 217 121H215.864ZM222.749 121.108C221.92 121.108 221.261 120.877 220.77 120.416C220.287 119.955 220.031 119.284 220.003 118.405C220.003 118.347 220.003 118.271 220.003 118.178C220.003 118.077 220.003 117.997 220.003 117.94C220.031 117.385 220.158 116.909 220.381 116.512C220.605 116.109 220.918 115.802 221.322 115.593C221.726 115.377 222.198 115.269 222.738 115.269C223.344 115.269 223.849 115.395 224.252 115.647C224.663 115.892 224.97 116.231 225.172 116.664C225.381 117.089 225.485 117.579 225.485 118.134V118.383C225.485 118.455 225.456 118.516 225.399 118.567C225.348 118.617 225.287 118.643 225.215 118.643H221.679C221.679 118.65 221.679 118.664 221.679 118.686C221.679 118.7 221.679 118.715 221.679 118.729C221.686 118.96 221.729 119.172 221.809 119.367C221.895 119.555 222.014 119.706 222.165 119.821C222.324 119.937 222.511 119.994 222.728 119.994C222.908 119.994 223.056 119.969 223.171 119.919C223.286 119.868 223.38 119.807 223.452 119.735C223.531 119.663 223.589 119.601 223.625 119.551C223.69 119.479 223.741 119.436 223.777 119.421C223.82 119.4 223.885 119.389 223.971 119.389H225.096C225.168 119.389 225.226 119.41 225.269 119.454C225.319 119.49 225.341 119.544 225.334 119.616C225.327 119.731 225.265 119.875 225.15 120.048C225.042 120.214 224.88 120.38 224.663 120.546C224.447 120.704 224.177 120.838 223.852 120.946C223.535 121.054 223.167 121.108 222.749 121.108ZM221.679 117.659H223.798V117.637C223.798 117.377 223.755 117.154 223.668 116.967C223.589 116.772 223.47 116.62 223.312 116.512C223.153 116.404 222.962 116.35 222.738 116.35C222.515 116.35 222.324 116.404 222.165 116.512C222.007 116.62 221.884 116.772 221.798 116.967C221.718 117.154 221.679 117.377 221.679 117.637V117.659ZM228.783 121.108C228.336 121.108 227.95 121.058 227.626 120.957C227.309 120.849 227.049 120.719 226.847 120.567C226.653 120.416 226.505 120.265 226.404 120.113C226.31 119.955 226.26 119.821 226.252 119.713C226.245 119.634 226.271 119.569 226.328 119.519C226.386 119.468 226.444 119.443 226.501 119.443H227.55C227.572 119.443 227.593 119.446 227.615 119.454C227.637 119.461 227.658 119.479 227.68 119.508C227.774 119.573 227.871 119.648 227.972 119.735C228.073 119.814 228.188 119.883 228.318 119.94C228.455 119.998 228.624 120.027 228.826 120.027C229.064 120.027 229.266 119.98 229.432 119.886C229.598 119.785 229.68 119.645 229.68 119.464C229.68 119.335 229.641 119.227 229.561 119.14C229.489 119.054 229.349 118.974 229.14 118.902C228.931 118.83 228.621 118.751 228.21 118.664C227.82 118.578 227.489 118.462 227.215 118.318C226.941 118.174 226.736 117.994 226.599 117.778C226.462 117.554 226.393 117.287 226.393 116.977C226.393 116.696 226.48 116.426 226.653 116.166C226.833 115.907 227.096 115.694 227.442 115.528C227.788 115.355 228.221 115.269 228.74 115.269C229.136 115.269 229.482 115.319 229.778 115.42C230.081 115.514 230.333 115.636 230.535 115.788C230.737 115.932 230.888 116.083 230.989 116.242C231.097 116.393 231.155 116.527 231.162 116.642C231.169 116.714 231.147 116.775 231.097 116.826C231.047 116.876 230.989 116.902 230.924 116.902H229.962C229.926 116.902 229.893 116.898 229.864 116.891C229.835 116.876 229.81 116.858 229.789 116.837C229.702 116.779 229.612 116.714 229.518 116.642C229.432 116.563 229.327 116.494 229.205 116.437C229.082 116.379 228.923 116.35 228.729 116.35C228.491 116.35 228.307 116.404 228.177 116.512C228.055 116.613 227.993 116.743 227.993 116.902C227.993 117.003 228.026 117.096 228.091 117.183C228.156 117.269 228.289 117.349 228.491 117.421C228.693 117.493 228.999 117.568 229.41 117.648C229.9 117.734 230.29 117.864 230.578 118.037C230.866 118.21 231.072 118.412 231.194 118.643C231.324 118.866 231.389 119.108 231.389 119.367C231.389 119.706 231.288 120.009 231.086 120.275C230.884 120.535 230.589 120.74 230.199 120.892C229.817 121.036 229.345 121.108 228.783 121.108ZM235.001 121.108C234.402 121.108 233.901 121.011 233.498 120.816C233.094 120.614 232.784 120.33 232.568 119.962C232.359 119.594 232.243 119.165 232.222 118.675C232.214 118.531 232.211 118.369 232.211 118.188C232.211 118.001 232.214 117.839 232.222 117.702C232.243 117.204 232.366 116.775 232.589 116.415C232.813 116.047 233.126 115.766 233.53 115.572C233.934 115.37 234.424 115.269 235.001 115.269C235.57 115.269 236.057 115.37 236.46 115.572C236.864 115.766 237.178 116.047 237.401 116.415C237.625 116.775 237.747 117.204 237.769 117.702C237.783 117.839 237.791 118.001 237.791 118.188C237.791 118.369 237.783 118.531 237.769 118.675C237.747 119.165 237.628 119.594 237.412 119.962C237.203 120.33 236.897 120.614 236.493 120.816C236.089 121.011 235.592 121.108 235.001 121.108ZM235.001 119.919C235.354 119.919 235.621 119.811 235.801 119.594C235.981 119.371 236.078 119.046 236.093 118.621C236.1 118.513 236.104 118.369 236.104 118.188C236.104 118.008 236.1 117.864 236.093 117.756C236.078 117.338 235.981 117.017 235.801 116.793C235.621 116.57 235.354 116.458 235.001 116.458C234.647 116.458 234.377 116.57 234.19 116.793C234.009 117.017 233.912 117.338 233.898 117.756C233.89 117.864 233.887 118.008 233.887 118.188C233.887 118.369 233.89 118.513 233.898 118.621C233.912 119.046 234.009 119.371 234.19 119.594C234.377 119.811 234.647 119.919 235.001 119.919ZM240.987 121.108C240.569 121.108 240.198 121.014 239.873 120.827C239.556 120.632 239.307 120.355 239.127 119.994C238.954 119.627 238.867 119.183 238.867 118.664V115.647C238.867 115.568 238.893 115.503 238.943 115.453C238.994 115.402 239.055 115.377 239.127 115.377H240.273C240.353 115.377 240.417 115.402 240.468 115.453C240.518 115.503 240.544 115.568 240.544 115.647V118.599C240.544 119.407 240.897 119.811 241.603 119.811C241.942 119.811 242.209 119.706 242.403 119.497C242.605 119.281 242.706 118.981 242.706 118.599V115.647C242.706 115.568 242.732 115.503 242.782 115.453C242.832 115.402 242.897 115.377 242.977 115.377H244.123C244.195 115.377 244.256 115.402 244.307 115.453C244.357 115.503 244.382 115.568 244.382 115.647V120.73C244.382 120.809 244.357 120.874 244.307 120.924C244.256 120.975 244.195 121 244.123 121H243.063C242.984 121 242.919 120.975 242.868 120.924C242.818 120.874 242.793 120.809 242.793 120.73V120.308C242.605 120.567 242.364 120.766 242.068 120.903C241.773 121.04 241.412 121.108 240.987 121.108ZM246.003 121C245.931 121 245.87 120.975 245.819 120.924C245.769 120.874 245.743 120.809 245.743 120.73V115.647C245.743 115.575 245.769 115.514 245.819 115.463C245.87 115.406 245.931 115.377 246.003 115.377H247.063C247.135 115.377 247.196 115.406 247.246 115.463C247.304 115.514 247.333 115.575 247.333 115.647V116.08C247.513 115.856 247.733 115.683 247.993 115.561C248.259 115.438 248.566 115.377 248.912 115.377H249.377C249.449 115.377 249.51 115.402 249.561 115.453C249.611 115.503 249.636 115.568 249.636 115.647V116.577C249.636 116.657 249.611 116.721 249.561 116.772C249.51 116.822 249.449 116.848 249.377 116.848H248.425C248.108 116.848 247.859 116.938 247.679 117.118C247.499 117.291 247.409 117.54 247.409 117.864V120.73C247.409 120.809 247.383 120.874 247.333 120.924C247.283 120.975 247.218 121 247.138 121H246.003ZM252.877 121.108C252.351 121.108 251.886 121.011 251.482 120.816C251.086 120.622 250.772 120.34 250.542 119.973C250.311 119.598 250.185 119.151 250.163 118.632C250.156 118.516 250.152 118.372 250.152 118.199C250.152 118.019 250.156 117.871 250.163 117.756C250.185 117.23 250.307 116.783 250.531 116.415C250.761 116.04 251.079 115.755 251.482 115.561C251.886 115.366 252.351 115.269 252.877 115.269C253.36 115.269 253.771 115.337 254.11 115.474C254.449 115.604 254.726 115.77 254.943 115.972C255.159 116.174 255.318 116.386 255.418 116.61C255.527 116.826 255.584 117.017 255.591 117.183C255.599 117.255 255.573 117.32 255.516 117.377C255.465 117.428 255.404 117.453 255.332 117.453H254.175C254.103 117.453 254.045 117.435 254.002 117.399C253.966 117.356 253.93 117.298 253.894 117.226C253.793 116.974 253.663 116.793 253.504 116.685C253.346 116.577 253.148 116.523 252.91 116.523C252.585 116.523 252.329 116.628 252.142 116.837C251.954 117.046 251.854 117.37 251.839 117.81C251.832 118.091 251.832 118.347 251.839 118.578C251.861 119.025 251.962 119.349 252.142 119.551C252.329 119.753 252.585 119.854 252.91 119.854C253.162 119.854 253.364 119.8 253.515 119.692C253.667 119.583 253.793 119.403 253.894 119.151C253.923 119.079 253.959 119.025 254.002 118.989C254.045 118.945 254.103 118.924 254.175 118.924H255.332C255.404 118.924 255.465 118.953 255.516 119.01C255.573 119.061 255.599 119.122 255.591 119.194C255.584 119.317 255.548 119.461 255.483 119.627C255.426 119.792 255.328 119.962 255.191 120.135C255.062 120.308 254.892 120.47 254.683 120.622C254.474 120.766 254.218 120.885 253.915 120.978C253.62 121.065 253.274 121.108 252.877 121.108ZM259.161 121.108C258.332 121.108 257.672 120.877 257.182 120.416C256.699 119.955 256.443 119.284 256.414 118.405C256.414 118.347 256.414 118.271 256.414 118.178C256.414 118.077 256.414 117.997 256.414 117.94C256.443 117.385 256.569 116.909 256.793 116.512C257.016 116.109 257.33 115.802 257.733 115.593C258.137 115.377 258.609 115.269 259.15 115.269C259.756 115.269 260.26 115.395 260.664 115.647C261.075 115.892 261.381 116.231 261.583 116.664C261.792 117.089 261.897 117.579 261.897 118.134V118.383C261.897 118.455 261.868 118.516 261.81 118.567C261.76 118.617 261.698 118.643 261.626 118.643H258.09C258.09 118.65 258.09 118.664 258.09 118.686C258.09 118.7 258.09 118.715 258.09 118.729C258.097 118.96 258.141 119.172 258.22 119.367C258.307 119.555 258.425 119.706 258.577 119.821C258.735 119.937 258.923 119.994 259.139 119.994C259.319 119.994 259.467 119.969 259.583 119.919C259.698 119.868 259.792 119.807 259.864 119.735C259.943 119.663 260.001 119.601 260.037 119.551C260.102 119.479 260.152 119.436 260.188 119.421C260.231 119.4 260.296 119.389 260.383 119.389H261.507C261.579 119.389 261.637 119.41 261.68 119.454C261.731 119.49 261.752 119.544 261.745 119.616C261.738 119.731 261.677 119.875 261.561 120.048C261.453 120.214 261.291 120.38 261.075 120.546C260.859 120.704 260.588 120.838 260.264 120.946C259.947 121.054 259.579 121.108 259.161 121.108ZM258.09 117.659H260.21V117.637C260.21 117.377 260.166 117.154 260.08 116.967C260.001 116.772 259.882 116.62 259.723 116.512C259.565 116.404 259.373 116.35 259.15 116.35C258.927 116.35 258.735 116.404 258.577 116.512C258.418 116.62 258.296 116.772 258.209 116.967C258.13 117.154 258.09 117.377 258.09 117.637V117.659ZM265.194 121.108C264.747 121.108 264.362 121.058 264.037 120.957C263.72 120.849 263.461 120.719 263.259 120.567C263.064 120.416 262.916 120.265 262.815 120.113C262.722 119.955 262.671 119.821 262.664 119.713C262.657 119.634 262.682 119.569 262.74 119.519C262.797 119.468 262.855 119.443 262.913 119.443H263.962C263.983 119.443 264.005 119.446 264.027 119.454C264.048 119.461 264.07 119.479 264.091 119.508C264.185 119.573 264.282 119.648 264.383 119.735C264.484 119.814 264.6 119.883 264.729 119.94C264.866 119.998 265.036 120.027 265.238 120.027C265.476 120.027 265.677 119.98 265.843 119.886C266.009 119.785 266.092 119.645 266.092 119.464C266.092 119.335 266.052 119.227 265.973 119.14C265.901 119.054 265.76 118.974 265.551 118.902C265.342 118.83 265.032 118.751 264.621 118.664C264.232 118.578 263.9 118.462 263.626 118.318C263.352 118.174 263.147 117.994 263.01 117.778C262.873 117.554 262.805 117.287 262.805 116.977C262.805 116.696 262.891 116.426 263.064 116.166C263.244 115.907 263.507 115.694 263.854 115.528C264.2 115.355 264.632 115.269 265.151 115.269C265.548 115.269 265.894 115.319 266.189 115.42C266.492 115.514 266.744 115.636 266.946 115.788C267.148 115.932 267.299 116.083 267.4 116.242C267.509 116.393 267.566 116.527 267.573 116.642C267.581 116.714 267.559 116.775 267.509 116.826C267.458 116.876 267.4 116.902 267.335 116.902H266.373C266.337 116.902 266.305 116.898 266.276 116.891C266.247 116.876 266.222 116.858 266.2 116.837C266.114 116.779 266.023 116.714 265.93 116.642C265.843 116.563 265.739 116.494 265.616 116.437C265.494 116.379 265.335 116.35 265.14 116.35C264.902 116.35 264.719 116.404 264.589 116.512C264.466 116.613 264.405 116.743 264.405 116.902C264.405 117.003 264.437 117.096 264.502 117.183C264.567 117.269 264.701 117.349 264.902 117.421C265.104 117.493 265.411 117.568 265.822 117.648C266.312 117.734 266.701 117.864 266.989 118.037C267.278 118.21 267.483 118.412 267.606 118.643C267.736 118.866 267.8 119.108 267.8 119.367C267.8 119.706 267.7 120.009 267.498 120.275C267.296 120.535 267 120.74 266.611 120.892C266.229 121.036 265.757 121.108 265.194 121.108Z" fill="white"/>
</svg>
