<svg width="293" height="200" viewBox="0 0 293 200" fill="none" xmlns="http://www.w3.org/2000/svg">
<rect width="293" height="200" fill="white"/>
<g filter="url(#filter0_d_241_1710)">
<path d="M30.5 72.8238C30.5 66.5042 35.623 61.3812 41.9426 61.3812H95.3412C101.661 61.3812 106.784 66.5042 106.784 72.8238V126.222C106.784 132.542 101.661 137.665 95.3412 137.665H41.9426C35.623 137.665 30.5 132.542 30.5 126.222V72.8238Z" fill="#0052CC"/>
<path d="M58.3918 132.103L42.0653 140.526V140.282H41.9426V86.4506L95.3412 59.4741V76.075L58.3918 94.7511V98.6572L95.3412 79.737V92.9201L58.3918 111.596V132.103Z" fill="white"/>
</g>
<path d="M115.4 102V83.7031H127.027V85.8831H118.099V91.7225H126.482V93.9025H118.099V102H115.4ZM129.231 102V89.3348H131.775V92.3713H131.515C131.792 91.3332 132.285 90.546 132.995 90.0096C133.721 89.4732 134.682 89.1618 135.875 89.0753L136.732 89.0234L136.913 91.2553L135.33 91.4111C134.206 91.5149 133.349 91.8695 132.761 92.4751C132.173 93.0807 131.879 93.9112 131.879 94.9666V102H129.231ZM144.679 102.233C143.295 102.233 142.101 101.974 141.097 101.455C140.111 100.918 139.341 100.166 138.788 99.1969C138.251 98.2107 137.983 97.0428 137.983 95.6932C137.983 94.3783 138.251 93.2277 138.788 92.2415C139.324 91.2553 140.059 90.4854 140.994 89.9317C141.928 89.3781 142.992 89.1013 144.186 89.1013C145.362 89.1013 146.366 89.3608 147.196 89.8798C148.044 90.3816 148.693 91.0996 149.143 92.0339C149.593 92.9682 149.817 94.0842 149.817 95.3818V96.2642H140.059V94.6551H148.053L147.611 95.0185C147.611 93.7208 147.326 92.7173 146.755 92.008C146.184 91.2986 145.362 90.9439 144.29 90.9439C143.476 90.9439 142.784 91.1342 142.213 91.5149C141.66 91.8955 141.236 92.4232 140.942 93.098C140.647 93.7727 140.5 94.56 140.5 95.4597V95.6154C140.5 96.6189 140.656 97.4667 140.968 98.1588C141.296 98.8335 141.772 99.3439 142.395 99.69C143.018 100.036 143.788 100.209 144.705 100.209C145.431 100.209 146.141 100.097 146.833 99.8716C147.542 99.6294 148.208 99.2574 148.831 98.7557L149.61 100.572C149.039 101.091 148.304 101.498 147.404 101.792C146.504 102.086 145.596 102.233 144.679 102.233ZM158.618 102.233C157.234 102.233 156.04 101.974 155.037 101.455C154.051 100.918 153.281 100.166 152.727 99.1969C152.191 98.2107 151.922 97.0428 151.922 95.6932C151.922 94.3783 152.191 93.2277 152.727 92.2415C153.263 91.2553 153.999 90.4854 154.933 89.9317C155.867 89.3781 156.931 89.1013 158.125 89.1013C159.302 89.1013 160.305 89.3608 161.136 89.8798C161.983 90.3816 162.632 91.0996 163.082 92.0339C163.532 92.9682 163.757 94.0842 163.757 95.3818V96.2642H153.999V94.6551H161.992L161.551 95.0185C161.551 93.7208 161.265 92.7173 160.694 92.008C160.124 91.2986 159.302 90.9439 158.229 90.9439C157.416 90.9439 156.724 91.1342 156.153 91.5149C155.599 91.8955 155.175 92.4232 154.881 93.098C154.587 93.7727 154.44 94.56 154.44 95.4597V95.6154C154.44 96.6189 154.596 97.4667 154.907 98.1588C155.236 98.8335 155.712 99.3439 156.334 99.69C156.957 100.036 157.727 100.209 158.644 100.209C159.371 100.209 160.08 100.097 160.772 99.8716C161.482 99.6294 162.148 99.2574 162.771 98.7557L163.549 100.572C162.978 101.091 162.243 101.498 161.343 101.792C160.444 102.086 159.535 102.233 158.618 102.233ZM166.9 102V83.7031H178.527V85.8831H169.599V91.7225H177.982V93.9025H169.599V102H166.9ZM186.005 102.233C184.725 102.233 183.618 101.965 182.683 101.429C181.766 100.892 181.048 100.131 180.529 99.145C180.01 98.1588 179.751 96.9995 179.751 95.6673C179.751 94.3178 180.01 93.1585 180.529 92.1896C181.048 91.2034 181.766 90.4421 182.683 89.9058C183.618 89.3694 184.725 89.1013 186.005 89.1013C187.268 89.1013 188.358 89.3694 189.275 89.9058C190.21 90.4421 190.936 91.2034 191.455 92.1896C191.974 93.1758 192.234 94.3351 192.234 95.6673C192.234 96.9995 191.974 98.1588 191.455 99.145C190.936 100.131 190.21 100.892 189.275 101.429C188.358 101.965 187.268 102.233 186.005 102.233ZM185.979 100.209C187.069 100.209 187.943 99.8197 188.601 99.0411C189.258 98.2626 189.587 97.1379 189.587 95.6673C189.587 94.1793 189.258 93.0547 188.601 92.2934C187.943 91.5322 187.069 91.1515 185.979 91.1515C184.907 91.1515 184.041 91.5322 183.384 92.2934C182.727 93.0547 182.398 94.1793 182.398 95.6673C182.398 97.1379 182.727 98.2626 183.384 99.0411C184.041 99.8197 184.907 100.209 185.979 100.209ZM199.693 102.233C198.673 102.233 197.816 102.043 197.124 101.662C196.449 101.282 195.939 100.719 195.593 99.9754C195.264 99.2142 195.1 98.2626 195.1 97.1206V89.3348H197.721V97.1466C197.721 97.8214 197.808 98.3837 197.981 98.8335C198.171 99.2834 198.456 99.6121 198.837 99.8197C199.235 100.027 199.728 100.131 200.316 100.131C200.974 100.131 201.553 99.9841 202.055 99.69C202.557 99.3958 202.946 98.9719 203.223 98.4183C203.5 97.8646 203.638 97.2245 203.638 96.4978V89.3348H206.26V102H203.716V99.2228H204.054C203.707 100.192 203.154 100.936 202.393 101.455C201.631 101.974 200.732 102.233 199.693 102.233ZM209.954 102V89.3348H212.497V92.0339H212.211C212.592 91.065 213.189 90.3383 214.002 89.8539C214.815 89.3521 215.75 89.1013 216.805 89.1013C217.809 89.1013 218.639 89.2916 219.296 89.6722C219.971 90.0356 220.473 90.5979 220.802 91.3591C221.13 92.1031 221.295 93.0461 221.295 94.188V102H218.674V94.3437C218.674 93.617 218.578 93.0288 218.388 92.5789C218.198 92.1118 217.912 91.7657 217.532 91.5408C217.151 91.3159 216.658 91.2034 216.052 91.2034C215.36 91.2034 214.746 91.3505 214.21 91.6446C213.691 91.9388 213.284 92.3626 212.99 92.9163C212.713 93.47 212.575 94.1101 212.575 94.8368V102H209.954ZM229.734 102.233C228.627 102.233 227.649 101.974 226.801 101.455C225.971 100.918 225.322 100.157 224.855 99.1709C224.388 98.1674 224.154 96.9995 224.154 95.6673C224.154 94.3005 224.388 93.1326 224.855 92.1637C225.322 91.1948 225.971 90.4421 226.801 89.9058C227.649 89.3694 228.627 89.1013 229.734 89.1013C230.841 89.1013 231.793 89.3781 232.589 89.9317C233.402 90.4681 233.947 91.1948 234.224 92.1118H233.938V83.7031H236.56V102H233.99V99.145H234.25C233.973 100.079 233.428 100.832 232.615 101.403C231.819 101.957 230.859 102.233 229.734 102.233ZM230.409 100.209C231.481 100.209 232.347 99.8197 233.004 99.0411C233.661 98.2626 233.99 97.1379 233.99 95.6673C233.99 94.1793 233.661 93.0547 233.004 92.2934C232.347 91.5322 231.481 91.1515 230.409 91.1515C229.319 91.1515 228.445 91.5322 227.787 92.2934C227.13 93.0547 226.801 94.1793 226.801 95.6673C226.801 97.1379 227.13 98.2626 227.787 99.0411C228.445 99.8197 229.319 100.209 230.409 100.209ZM240.24 102V89.3348H242.783V92.3713H242.524C242.801 91.3332 243.294 90.546 244.003 90.0096C244.73 89.4732 245.69 89.1618 246.884 89.0753L247.74 89.0234L247.922 91.2553L246.339 91.4111C245.214 91.5149 244.358 91.8695 243.77 92.4751C243.181 93.0807 242.887 93.9112 242.887 94.9666V102H240.24ZM252.005 106.671L254.496 101.117V102.233L248.969 89.3348H251.771L256.028 99.8457H255.301L259.609 89.3348H262.308L254.756 106.671H252.005Z" fill="#0052CC"/>
<path d="M117.078 121.108C116.422 121.108 115.856 121 115.381 120.783C114.905 120.567 114.534 120.243 114.267 119.81C114 119.371 113.856 118.819 113.834 118.156C113.827 117.846 113.823 117.539 113.823 117.237C113.823 116.927 113.827 116.613 113.834 116.296C113.856 115.647 114 115.103 114.267 114.663C114.541 114.216 114.916 113.881 115.391 113.657C115.874 113.434 116.437 113.322 117.078 113.322C117.713 113.322 118.268 113.434 118.744 113.657C119.227 113.881 119.605 114.216 119.879 114.663C120.153 115.103 120.297 115.647 120.312 116.296C120.326 116.613 120.333 116.927 120.333 117.237C120.333 117.539 120.326 117.846 120.312 118.156C120.29 118.819 120.146 119.371 119.879 119.81C119.612 120.243 119.241 120.567 118.765 120.783C118.289 121 117.727 121.108 117.078 121.108ZM117.078 119.713C117.496 119.713 117.839 119.587 118.106 119.334C118.38 119.075 118.524 118.664 118.538 118.102C118.553 117.785 118.56 117.489 118.56 117.215C118.56 116.934 118.553 116.638 118.538 116.328C118.531 115.953 118.463 115.647 118.333 115.409C118.203 115.171 118.03 114.998 117.814 114.89C117.605 114.775 117.36 114.717 117.078 114.717C116.797 114.717 116.549 114.775 116.332 114.89C116.116 114.998 115.943 115.171 115.813 115.409C115.691 115.647 115.622 115.953 115.608 116.328C115.601 116.638 115.597 116.934 115.597 117.215C115.597 117.489 115.601 117.785 115.608 118.102C115.629 118.664 115.774 119.075 116.04 119.334C116.307 119.587 116.653 119.713 117.078 119.713ZM121.816 121C121.744 121 121.683 120.975 121.632 120.924C121.582 120.874 121.557 120.809 121.557 120.729V115.647C121.557 115.568 121.582 115.503 121.632 115.452C121.683 115.402 121.744 115.377 121.816 115.377H122.876C122.955 115.377 123.02 115.402 123.07 115.452C123.121 115.503 123.146 115.568 123.146 115.647V116.069C123.334 115.838 123.575 115.647 123.871 115.496C124.166 115.344 124.527 115.269 124.952 115.269C125.377 115.269 125.749 115.366 126.066 115.561C126.39 115.748 126.643 116.025 126.823 116.393C127.01 116.754 127.104 117.193 127.104 117.712V120.729C127.104 120.809 127.075 120.874 127.017 120.924C126.967 120.975 126.906 121 126.834 121H125.687C125.608 121 125.543 120.975 125.493 120.924C125.442 120.874 125.417 120.809 125.417 120.729V117.777C125.417 117.395 125.323 117.1 125.136 116.891C124.956 116.674 124.689 116.566 124.336 116.566C123.997 116.566 123.726 116.674 123.525 116.891C123.323 117.1 123.222 117.395 123.222 117.777V120.729C123.222 120.809 123.197 120.874 123.146 120.924C123.096 120.975 123.034 121 122.962 121H121.816ZM130.908 121.108C130.079 121.108 129.42 120.877 128.929 120.416C128.446 119.954 128.19 119.284 128.162 118.404C128.162 118.347 128.162 118.271 128.162 118.177C128.162 118.076 128.162 117.997 128.162 117.939C128.19 117.384 128.317 116.909 128.54 116.512C128.764 116.108 129.077 115.802 129.481 115.593C129.885 115.377 130.357 115.269 130.898 115.269C131.503 115.269 132.008 115.395 132.411 115.647C132.822 115.892 133.129 116.231 133.331 116.663C133.54 117.089 133.644 117.579 133.644 118.134V118.383C133.644 118.455 133.615 118.516 133.558 118.567C133.507 118.617 133.446 118.642 133.374 118.642H129.838C129.838 118.65 129.838 118.664 129.838 118.686C129.838 118.7 129.838 118.714 129.838 118.729C129.845 118.96 129.888 119.172 129.968 119.367C130.054 119.554 130.173 119.706 130.324 119.821C130.483 119.936 130.67 119.994 130.887 119.994C131.067 119.994 131.215 119.969 131.33 119.918C131.445 119.868 131.539 119.807 131.611 119.735C131.691 119.662 131.748 119.601 131.784 119.551C131.849 119.479 131.9 119.435 131.936 119.421C131.979 119.399 132.044 119.389 132.13 119.389H133.255C133.327 119.389 133.385 119.41 133.428 119.453C133.478 119.489 133.5 119.544 133.493 119.616C133.486 119.731 133.424 119.875 133.309 120.048C133.201 120.214 133.039 120.38 132.822 120.546C132.606 120.704 132.336 120.838 132.011 120.946C131.694 121.054 131.326 121.108 130.908 121.108ZM129.838 117.658H131.957V117.637C131.957 117.377 131.914 117.154 131.827 116.966C131.748 116.772 131.629 116.62 131.471 116.512C131.312 116.404 131.121 116.35 130.898 116.35C130.674 116.35 130.483 116.404 130.324 116.512C130.166 116.62 130.043 116.772 129.957 116.966C129.877 117.154 129.838 117.377 129.838 117.637V117.658ZM137.382 121C137.303 121 137.238 120.975 137.187 120.924C137.137 120.874 137.112 120.809 137.112 120.729V113.592C137.112 113.513 137.137 113.448 137.187 113.398C137.238 113.347 137.303 113.322 137.382 113.322H138.55C138.622 113.322 138.683 113.347 138.734 113.398C138.784 113.448 138.809 113.513 138.809 113.592V116.025C139.004 115.795 139.242 115.611 139.523 115.474C139.804 115.337 140.143 115.269 140.54 115.269C140.965 115.269 141.34 115.366 141.664 115.561C141.996 115.748 142.255 116.025 142.443 116.393C142.63 116.754 142.724 117.193 142.724 117.712V120.729C142.724 120.809 142.699 120.874 142.648 120.924C142.598 120.975 142.533 121 142.454 121H141.275C141.203 121 141.142 120.975 141.091 120.924C141.041 120.874 141.015 120.809 141.015 120.729V117.777C141.015 117.395 140.922 117.1 140.734 116.891C140.547 116.674 140.28 116.566 139.934 116.566C139.595 116.566 139.321 116.674 139.112 116.891C138.91 117.1 138.809 117.395 138.809 117.777V120.729C138.809 120.809 138.784 120.874 138.734 120.924C138.683 120.975 138.622 121 138.55 121H137.382ZM146.083 121.108C145.665 121.108 145.294 121.014 144.97 120.827C144.652 120.632 144.404 120.355 144.224 119.994C144.051 119.626 143.964 119.183 143.964 118.664V115.647C143.964 115.568 143.989 115.503 144.04 115.452C144.09 115.402 144.151 115.377 144.224 115.377H145.37C145.449 115.377 145.514 115.402 145.564 115.452C145.615 115.503 145.64 115.568 145.64 115.647V118.599C145.64 119.407 145.993 119.81 146.7 119.81C147.039 119.81 147.305 119.706 147.5 119.497C147.702 119.28 147.803 118.981 147.803 118.599V115.647C147.803 115.568 147.828 115.503 147.879 115.452C147.929 115.402 147.994 115.377 148.073 115.377H149.219C149.292 115.377 149.353 115.402 149.403 115.452C149.454 115.503 149.479 115.568 149.479 115.647V120.729C149.479 120.809 149.454 120.874 149.403 120.924C149.353 120.975 149.292 121 149.219 121H148.16C148.08 121 148.016 120.975 147.965 120.924C147.915 120.874 147.889 120.809 147.889 120.729V120.308C147.702 120.567 147.46 120.765 147.165 120.902C146.869 121.039 146.509 121.108 146.083 121.108ZM154.106 121.108C153.695 121.108 153.352 121.039 153.078 120.902C152.804 120.758 152.581 120.578 152.408 120.362V120.729C152.408 120.809 152.383 120.874 152.332 120.924C152.282 120.975 152.217 121 152.138 121H151.11C151.031 121 150.966 120.975 150.916 120.924C150.865 120.874 150.84 120.809 150.84 120.729V113.592C150.84 113.513 150.865 113.448 150.916 113.398C150.966 113.347 151.031 113.322 151.11 113.322H152.224C152.296 113.322 152.357 113.347 152.408 113.398C152.458 113.448 152.484 113.513 152.484 113.592V115.95C152.664 115.748 152.887 115.586 153.154 115.463C153.421 115.333 153.738 115.269 154.106 115.269C154.481 115.269 154.805 115.333 155.079 115.463C155.36 115.586 155.598 115.762 155.793 115.993C155.987 116.217 156.135 116.483 156.236 116.793C156.344 117.103 156.402 117.446 156.409 117.821C156.416 117.95 156.42 118.073 156.42 118.188C156.42 118.296 156.416 118.419 156.409 118.556C156.395 118.938 156.333 119.288 156.225 119.605C156.124 119.915 155.976 120.185 155.782 120.416C155.594 120.639 155.36 120.812 155.079 120.935C154.805 121.05 154.481 121.108 154.106 121.108ZM153.619 119.81C153.893 119.81 154.109 119.753 154.268 119.637C154.426 119.515 154.538 119.356 154.603 119.161C154.675 118.967 154.718 118.754 154.733 118.523C154.747 118.3 154.747 118.076 154.733 117.853C154.718 117.622 154.675 117.41 154.603 117.215C154.538 117.02 154.426 116.865 154.268 116.75C154.109 116.627 153.893 116.566 153.619 116.566C153.36 116.566 153.147 116.624 152.981 116.739C152.822 116.855 152.7 117.002 152.613 117.183C152.534 117.356 152.491 117.543 152.484 117.745C152.476 117.875 152.473 118.008 152.473 118.145C152.473 118.282 152.476 118.419 152.484 118.556C152.498 118.772 152.541 118.974 152.613 119.161C152.685 119.349 152.804 119.504 152.97 119.626C153.136 119.749 153.352 119.81 153.619 119.81ZM160.343 121C160.263 121 160.198 120.975 160.148 120.924C160.098 120.874 160.072 120.809 160.072 120.729V113.701C160.072 113.621 160.098 113.556 160.148 113.506C160.198 113.455 160.263 113.43 160.343 113.43H165.241C165.321 113.43 165.385 113.455 165.436 113.506C165.486 113.556 165.512 113.621 165.512 113.701V114.566C165.512 114.638 165.486 114.699 165.436 114.749C165.385 114.8 165.321 114.825 165.241 114.825H161.738V116.523H165.003C165.083 116.523 165.148 116.548 165.198 116.599C165.248 116.649 165.274 116.714 165.274 116.793V117.593C165.274 117.666 165.248 117.727 165.198 117.777C165.148 117.828 165.083 117.853 165.003 117.853H161.738V119.605H165.328C165.407 119.605 165.472 119.63 165.522 119.68C165.573 119.731 165.598 119.796 165.598 119.875V120.729C165.598 120.809 165.573 120.874 165.522 120.924C165.472 120.975 165.407 121 165.328 121H160.343ZM167.024 121C166.952 121 166.891 120.975 166.84 120.924C166.79 120.874 166.765 120.809 166.765 120.729V115.647C166.765 115.568 166.79 115.503 166.84 115.452C166.891 115.402 166.952 115.377 167.024 115.377H168.084C168.163 115.377 168.228 115.402 168.279 115.452C168.329 115.503 168.354 115.568 168.354 115.647V116.069C168.542 115.838 168.783 115.647 169.079 115.496C169.374 115.344 169.735 115.269 170.16 115.269C170.586 115.269 170.957 115.366 171.274 115.561C171.598 115.748 171.851 116.025 172.031 116.393C172.218 116.754 172.312 117.193 172.312 117.712V120.729C172.312 120.809 172.283 120.874 172.226 120.924C172.175 120.975 172.114 121 172.042 121H170.896C170.816 121 170.751 120.975 170.701 120.924C170.65 120.874 170.625 120.809 170.625 120.729V117.777C170.625 117.395 170.531 117.1 170.344 116.891C170.164 116.674 169.897 116.566 169.544 116.566C169.205 116.566 168.935 116.674 168.733 116.891C168.531 117.1 168.43 117.395 168.43 117.777V120.729C168.43 120.809 168.405 120.874 168.354 120.924C168.304 120.975 168.243 121 168.17 121H167.024ZM175.695 121.108C175.334 121.108 175.013 121.05 174.732 120.935C174.451 120.812 174.213 120.639 174.019 120.416C173.824 120.185 173.676 119.915 173.575 119.605C173.474 119.288 173.413 118.938 173.391 118.556C173.384 118.419 173.381 118.296 173.381 118.188C173.381 118.073 173.384 117.95 173.391 117.821C173.406 117.446 173.464 117.103 173.564 116.793C173.673 116.483 173.82 116.217 174.008 115.993C174.202 115.762 174.44 115.586 174.722 115.463C175.01 115.333 175.334 115.269 175.695 115.269C176.07 115.269 176.39 115.333 176.657 115.463C176.924 115.586 177.144 115.748 177.317 115.95V113.592C177.317 113.513 177.342 113.448 177.392 113.398C177.443 113.347 177.508 113.322 177.587 113.322H178.701C178.773 113.322 178.834 113.347 178.885 113.398C178.935 113.448 178.96 113.513 178.96 113.592V120.729C178.96 120.809 178.935 120.874 178.885 120.924C178.834 120.975 178.773 121 178.701 121H177.663C177.591 121 177.529 120.975 177.479 120.924C177.429 120.874 177.403 120.809 177.403 120.729V120.362C177.223 120.578 176.996 120.758 176.722 120.902C176.448 121.039 176.106 121.108 175.695 121.108ZM176.192 119.81C176.459 119.81 176.672 119.749 176.83 119.626C176.996 119.504 177.115 119.349 177.187 119.161C177.266 118.974 177.31 118.772 177.317 118.556C177.331 118.419 177.338 118.282 177.338 118.145C177.338 118.008 177.331 117.875 177.317 117.745C177.31 117.543 177.266 117.356 177.187 117.183C177.108 117.002 176.985 116.855 176.819 116.739C176.661 116.624 176.452 116.566 176.192 116.566C175.918 116.566 175.702 116.627 175.543 116.75C175.385 116.865 175.269 117.02 175.197 117.215C175.132 117.41 175.093 117.622 175.078 117.853C175.057 118.076 175.057 118.3 175.078 118.523C175.093 118.754 175.132 118.967 175.197 119.161C175.269 119.356 175.385 119.515 175.543 119.637C175.702 119.753 175.918 119.81 176.192 119.81ZM180.605 121C180.526 121 180.461 120.975 180.41 120.924C180.36 120.874 180.335 120.809 180.335 120.729V113.592C180.335 113.513 180.36 113.448 180.41 113.398C180.461 113.347 180.526 113.322 180.605 113.322H181.686C181.758 113.322 181.82 113.347 181.87 113.398C181.921 113.448 181.946 113.513 181.946 113.592V120.729C181.946 120.809 181.921 120.874 181.87 120.924C181.82 120.975 181.758 121 181.686 121H180.605ZM185.821 121.108C184.992 121.108 184.333 120.877 183.842 120.416C183.359 119.954 183.103 119.284 183.075 118.404C183.075 118.347 183.075 118.271 183.075 118.177C183.075 118.076 183.075 117.997 183.075 117.939C183.103 117.384 183.23 116.909 183.453 116.512C183.677 116.108 183.99 115.802 184.394 115.593C184.798 115.377 185.27 115.269 185.81 115.269C186.416 115.269 186.921 115.395 187.324 115.647C187.735 115.892 188.042 116.231 188.244 116.663C188.453 117.089 188.557 117.579 188.557 118.134V118.383C188.557 118.455 188.528 118.516 188.471 118.567C188.42 118.617 188.359 118.642 188.287 118.642H184.751C184.751 118.65 184.751 118.664 184.751 118.686C184.751 118.7 184.751 118.714 184.751 118.729C184.758 118.96 184.801 119.172 184.88 119.367C184.967 119.554 185.086 119.706 185.237 119.821C185.396 119.936 185.583 119.994 185.8 119.994C185.98 119.994 186.128 119.969 186.243 119.918C186.358 119.868 186.452 119.807 186.524 119.735C186.603 119.662 186.661 119.601 186.697 119.551C186.762 119.479 186.813 119.435 186.849 119.421C186.892 119.399 186.957 119.389 187.043 119.389H188.168C188.24 119.389 188.298 119.41 188.341 119.453C188.391 119.489 188.413 119.544 188.406 119.616C188.399 119.731 188.337 119.875 188.222 120.048C188.114 120.214 187.952 120.38 187.735 120.546C187.519 120.704 187.249 120.838 186.924 120.946C186.607 121.054 186.239 121.108 185.821 121.108ZM184.751 117.658H186.87V117.637C186.87 117.377 186.827 117.154 186.74 116.966C186.661 116.772 186.542 116.62 186.384 116.512C186.225 116.404 186.034 116.35 185.81 116.35C185.587 116.35 185.396 116.404 185.237 116.512C185.079 116.62 184.956 116.772 184.87 116.966C184.79 117.154 184.751 117.377 184.751 117.637V117.658ZM191.855 121.108C191.408 121.108 191.022 121.057 190.698 120.957C190.381 120.848 190.121 120.719 189.919 120.567C189.725 120.416 189.577 120.264 189.476 120.113C189.382 119.954 189.332 119.821 189.324 119.713C189.317 119.634 189.342 119.569 189.4 119.518C189.458 119.468 189.516 119.443 189.573 119.443H190.622C190.644 119.443 190.665 119.446 190.687 119.453C190.709 119.461 190.73 119.479 190.752 119.507C190.846 119.572 190.943 119.648 191.044 119.735C191.145 119.814 191.26 119.882 191.39 119.94C191.527 119.998 191.696 120.027 191.898 120.027C192.136 120.027 192.338 119.98 192.504 119.886C192.669 119.785 192.752 119.644 192.752 119.464C192.752 119.334 192.713 119.226 192.633 119.14C192.561 119.053 192.421 118.974 192.212 118.902C192.003 118.83 191.693 118.751 191.282 118.664C190.892 118.578 190.561 118.462 190.287 118.318C190.013 118.174 189.807 117.994 189.671 117.777C189.534 117.554 189.465 117.287 189.465 116.977C189.465 116.696 189.552 116.426 189.725 116.166C189.905 115.907 190.168 115.694 190.514 115.528C190.86 115.355 191.293 115.269 191.812 115.269C192.208 115.269 192.554 115.319 192.85 115.42C193.152 115.514 193.405 115.636 193.607 115.788C193.809 115.932 193.96 116.083 194.061 116.242C194.169 116.393 194.227 116.527 194.234 116.642C194.241 116.714 194.219 116.775 194.169 116.826C194.119 116.876 194.061 116.901 193.996 116.901H193.034C192.997 116.901 192.965 116.898 192.936 116.891C192.907 116.876 192.882 116.858 192.861 116.837C192.774 116.779 192.684 116.714 192.59 116.642C192.504 116.563 192.399 116.494 192.277 116.436C192.154 116.379 191.995 116.35 191.801 116.35C191.563 116.35 191.379 116.404 191.249 116.512C191.127 116.613 191.065 116.743 191.065 116.901C191.065 117.002 191.098 117.096 191.163 117.183C191.228 117.269 191.361 117.348 191.563 117.42C191.765 117.493 192.071 117.568 192.482 117.648C192.972 117.734 193.362 117.864 193.65 118.037C193.938 118.21 194.144 118.412 194.266 118.642C194.396 118.866 194.461 119.107 194.461 119.367C194.461 119.706 194.36 120.009 194.158 120.275C193.956 120.535 193.661 120.74 193.271 120.892C192.889 121.036 192.417 121.108 191.855 121.108ZM197.716 121.108C197.269 121.108 196.883 121.057 196.559 120.957C196.241 120.848 195.982 120.719 195.78 120.567C195.585 120.416 195.438 120.264 195.337 120.113C195.243 119.954 195.193 119.821 195.185 119.713C195.178 119.634 195.203 119.569 195.261 119.518C195.319 119.468 195.376 119.443 195.434 119.443H196.483C196.505 119.443 196.526 119.446 196.548 119.453C196.57 119.461 196.591 119.479 196.613 119.507C196.706 119.572 196.804 119.648 196.905 119.735C197.006 119.814 197.121 119.882 197.251 119.94C197.388 119.998 197.557 120.027 197.759 120.027C197.997 120.027 198.199 119.98 198.365 119.886C198.53 119.785 198.613 119.644 198.613 119.464C198.613 119.334 198.574 119.226 198.494 119.14C198.422 119.053 198.282 118.974 198.073 118.902C197.864 118.83 197.554 118.751 197.143 118.664C196.753 118.578 196.422 118.462 196.148 118.318C195.874 118.174 195.668 117.994 195.531 117.777C195.394 117.554 195.326 117.287 195.326 116.977C195.326 116.696 195.412 116.426 195.585 116.166C195.766 115.907 196.029 115.694 196.375 115.528C196.721 115.355 197.153 115.269 197.673 115.269C198.069 115.269 198.415 115.319 198.711 115.42C199.013 115.514 199.266 115.636 199.468 115.788C199.669 115.932 199.821 116.083 199.922 116.242C200.03 116.393 200.088 116.527 200.095 116.642C200.102 116.714 200.08 116.775 200.03 116.826C199.979 116.876 199.922 116.901 199.857 116.901H198.894C198.858 116.901 198.826 116.898 198.797 116.891C198.768 116.876 198.743 116.858 198.721 116.837C198.635 116.779 198.545 116.714 198.451 116.642C198.365 116.563 198.26 116.494 198.137 116.436C198.015 116.379 197.856 116.35 197.662 116.35C197.424 116.35 197.24 116.404 197.11 116.512C196.988 116.613 196.926 116.743 196.926 116.901C196.926 117.002 196.959 117.096 197.024 117.183C197.089 117.269 197.222 117.348 197.424 117.42C197.626 117.493 197.932 117.568 198.343 117.648C198.833 117.734 199.222 117.864 199.511 118.037C199.799 118.21 200.005 118.412 200.127 118.642C200.257 118.866 200.322 119.107 200.322 119.367C200.322 119.706 200.221 120.009 200.019 120.275C199.817 120.535 199.522 120.74 199.132 120.892C198.75 121.036 198.278 121.108 197.716 121.108ZM204.006 121C203.934 121 203.873 120.975 203.822 120.924C203.772 120.874 203.746 120.809 203.746 120.729V115.647C203.746 115.575 203.772 115.514 203.822 115.463C203.873 115.406 203.934 115.377 204.006 115.377H205.066C205.138 115.377 205.199 115.406 205.25 115.463C205.307 115.514 205.336 115.575 205.336 115.647V116.08C205.516 115.856 205.736 115.683 205.996 115.561C206.262 115.438 206.569 115.377 206.915 115.377H207.38C207.452 115.377 207.513 115.402 207.564 115.452C207.614 115.503 207.639 115.568 207.639 115.647V116.577C207.639 116.656 207.614 116.721 207.564 116.772C207.513 116.822 207.452 116.847 207.38 116.847H206.428C206.111 116.847 205.862 116.937 205.682 117.118C205.502 117.291 205.412 117.539 205.412 117.864V120.729C205.412 120.809 205.387 120.874 205.336 120.924C205.286 120.975 205.221 121 205.141 121H204.006ZM210.891 121.108C210.062 121.108 209.402 120.877 208.912 120.416C208.429 119.954 208.173 119.284 208.144 118.404C208.144 118.347 208.144 118.271 208.144 118.177C208.144 118.076 208.144 117.997 208.144 117.939C208.173 117.384 208.299 116.909 208.523 116.512C208.746 116.108 209.06 115.802 209.464 115.593C209.867 115.377 210.34 115.269 210.88 115.269C211.486 115.269 211.991 115.395 212.394 115.647C212.805 115.892 213.112 116.231 213.313 116.663C213.522 117.089 213.627 117.579 213.627 118.134V118.383C213.627 118.455 213.598 118.516 213.54 118.567C213.49 118.617 213.429 118.642 213.357 118.642H209.821C209.821 118.65 209.821 118.664 209.821 118.686C209.821 118.7 209.821 118.714 209.821 118.729C209.828 118.96 209.871 119.172 209.95 119.367C210.037 119.554 210.156 119.706 210.307 119.821C210.466 119.936 210.653 119.994 210.87 119.994C211.05 119.994 211.198 119.969 211.313 119.918C211.428 119.868 211.522 119.807 211.594 119.735C211.673 119.662 211.731 119.601 211.767 119.551C211.832 119.479 211.882 119.435 211.918 119.421C211.962 119.399 212.027 119.389 212.113 119.389H213.238C213.31 119.389 213.367 119.41 213.411 119.453C213.461 119.489 213.483 119.544 213.476 119.616C213.468 119.731 213.407 119.875 213.292 120.048C213.184 120.214 213.021 120.38 212.805 120.546C212.589 120.704 212.319 120.838 211.994 120.946C211.677 121.054 211.309 121.108 210.891 121.108ZM209.821 117.658H211.94V117.637C211.94 117.377 211.897 117.154 211.81 116.966C211.731 116.772 211.612 116.62 211.453 116.512C211.295 116.404 211.104 116.35 210.88 116.35C210.657 116.35 210.466 116.404 210.307 116.512C210.149 116.62 210.026 116.772 209.94 116.966C209.86 117.154 209.821 117.377 209.821 117.637V117.658ZM216.925 121.108C216.478 121.108 216.092 121.057 215.768 120.957C215.45 120.848 215.191 120.719 214.989 120.567C214.794 120.416 214.647 120.264 214.546 120.113C214.452 119.954 214.402 119.821 214.394 119.713C214.387 119.634 214.412 119.569 214.47 119.518C214.528 119.468 214.585 119.443 214.643 119.443H215.692C215.714 119.443 215.735 119.446 215.757 119.453C215.778 119.461 215.8 119.479 215.822 119.507C215.915 119.572 216.013 119.648 216.114 119.735C216.215 119.814 216.33 119.882 216.46 119.94C216.597 119.998 216.766 120.027 216.968 120.027C217.206 120.027 217.408 119.98 217.574 119.886C217.739 119.785 217.822 119.644 217.822 119.464C217.822 119.334 217.783 119.226 217.703 119.14C217.631 119.053 217.491 118.974 217.282 118.902C217.073 118.83 216.763 118.751 216.352 118.664C215.962 118.578 215.631 118.462 215.357 118.318C215.083 118.174 214.877 117.994 214.74 117.777C214.603 117.554 214.535 117.287 214.535 116.977C214.535 116.696 214.621 116.426 214.794 116.166C214.975 115.907 215.238 115.694 215.584 115.528C215.93 115.355 216.362 115.269 216.881 115.269C217.278 115.269 217.624 115.319 217.92 115.42C218.222 115.514 218.475 115.636 218.677 115.788C218.878 115.932 219.03 116.083 219.131 116.242C219.239 116.393 219.297 116.527 219.304 116.642C219.311 116.714 219.289 116.775 219.239 116.826C219.188 116.876 219.131 116.901 219.066 116.901H218.103C218.067 116.901 218.035 116.898 218.006 116.891C217.977 116.876 217.952 116.858 217.93 116.837C217.844 116.779 217.754 116.714 217.66 116.642C217.574 116.563 217.469 116.494 217.346 116.436C217.224 116.379 217.065 116.35 216.871 116.35C216.633 116.35 216.449 116.404 216.319 116.512C216.197 116.613 216.135 116.743 216.135 116.901C216.135 117.002 216.168 117.096 216.233 117.183C216.298 117.269 216.431 117.348 216.633 117.42C216.835 117.493 217.141 117.568 217.552 117.648C218.042 117.734 218.431 117.864 218.72 118.037C219.008 118.21 219.214 118.412 219.336 118.642C219.466 118.866 219.531 119.107 219.531 119.367C219.531 119.706 219.43 120.009 219.228 120.275C219.026 120.535 218.731 120.74 218.341 120.892C217.959 121.036 217.487 121.108 216.925 121.108ZM223.142 121.108C222.544 121.108 222.043 121.011 221.639 120.816C221.236 120.614 220.926 120.329 220.709 119.962C220.5 119.594 220.385 119.165 220.363 118.675C220.356 118.531 220.353 118.368 220.353 118.188C220.353 118.001 220.356 117.839 220.363 117.702C220.385 117.204 220.508 116.775 220.731 116.415C220.955 116.047 221.268 115.766 221.672 115.571C222.076 115.369 222.566 115.269 223.142 115.269C223.712 115.269 224.199 115.369 224.602 115.571C225.006 115.766 225.32 116.047 225.543 116.415C225.767 116.775 225.889 117.204 225.911 117.702C225.925 117.839 225.932 118.001 225.932 118.188C225.932 118.368 225.925 118.531 225.911 118.675C225.889 119.165 225.77 119.594 225.554 119.962C225.345 120.329 225.038 120.614 224.635 120.816C224.231 121.011 223.734 121.108 223.142 121.108ZM223.142 119.918C223.496 119.918 223.762 119.81 223.943 119.594C224.123 119.371 224.22 119.046 224.235 118.621C224.242 118.513 224.245 118.368 224.245 118.188C224.245 118.008 224.242 117.864 224.235 117.756C224.22 117.338 224.123 117.017 223.943 116.793C223.762 116.57 223.496 116.458 223.142 116.458C222.789 116.458 222.519 116.57 222.331 116.793C222.151 117.017 222.054 117.338 222.039 117.756C222.032 117.864 222.029 118.008 222.029 118.188C222.029 118.368 222.032 118.513 222.039 118.621C222.054 119.046 222.151 119.371 222.331 119.594C222.519 119.81 222.789 119.918 223.142 119.918ZM229.129 121.108C228.711 121.108 228.339 121.014 228.015 120.827C227.698 120.632 227.449 120.355 227.269 119.994C227.096 119.626 227.009 119.183 227.009 118.664V115.647C227.009 115.568 227.035 115.503 227.085 115.452C227.135 115.402 227.197 115.377 227.269 115.377H228.415C228.494 115.377 228.559 115.402 228.61 115.452C228.66 115.503 228.685 115.568 228.685 115.647V118.599C228.685 119.407 229.039 119.81 229.745 119.81C230.084 119.81 230.351 119.706 230.545 119.497C230.747 119.28 230.848 118.981 230.848 118.599V115.647C230.848 115.568 230.873 115.503 230.924 115.452C230.974 115.402 231.039 115.377 231.118 115.377H232.265C232.337 115.377 232.398 115.402 232.449 115.452C232.499 115.503 232.524 115.568 232.524 115.647V120.729C232.524 120.809 232.499 120.874 232.449 120.924C232.398 120.975 232.337 121 232.265 121H231.205C231.126 121 231.061 120.975 231.01 120.924C230.96 120.874 230.935 120.809 230.935 120.729V120.308C230.747 120.567 230.506 120.765 230.21 120.902C229.915 121.039 229.554 121.108 229.129 121.108ZM234.145 121C234.073 121 234.011 120.975 233.961 120.924C233.91 120.874 233.885 120.809 233.885 120.729V115.647C233.885 115.575 233.91 115.514 233.961 115.463C234.011 115.406 234.073 115.377 234.145 115.377H235.204C235.277 115.377 235.338 115.406 235.388 115.463C235.446 115.514 235.475 115.575 235.475 115.647V116.08C235.655 115.856 235.875 115.683 236.134 115.561C236.401 115.438 236.708 115.377 237.054 115.377H237.519C237.591 115.377 237.652 115.402 237.702 115.452C237.753 115.503 237.778 115.568 237.778 115.647V116.577C237.778 116.656 237.753 116.721 237.702 116.772C237.652 116.822 237.591 116.847 237.519 116.847H236.567C236.25 116.847 236.001 116.937 235.821 117.118C235.641 117.291 235.551 117.539 235.551 117.864V120.729C235.551 120.809 235.525 120.874 235.475 120.924C235.424 120.975 235.359 121 235.28 121H234.145ZM241.019 121.108C240.493 121.108 240.028 121.011 239.624 120.816C239.228 120.621 238.914 120.34 238.683 119.972C238.453 119.598 238.327 119.151 238.305 118.632C238.298 118.516 238.294 118.372 238.294 118.199C238.294 118.019 238.298 117.871 238.305 117.756C238.327 117.229 238.449 116.782 238.673 116.415C238.903 116.04 239.22 115.755 239.624 115.561C240.028 115.366 240.493 115.269 241.019 115.269C241.502 115.269 241.913 115.337 242.252 115.474C242.591 115.604 242.868 115.77 243.084 115.971C243.301 116.173 243.459 116.386 243.56 116.609C243.668 116.826 243.726 117.017 243.733 117.183C243.741 117.255 243.715 117.32 243.658 117.377C243.607 117.428 243.546 117.453 243.474 117.453H242.317C242.245 117.453 242.187 117.435 242.144 117.399C242.108 117.356 242.072 117.298 242.036 117.226C241.935 116.973 241.805 116.793 241.646 116.685C241.488 116.577 241.289 116.523 241.052 116.523C240.727 116.523 240.471 116.627 240.284 116.837C240.096 117.046 239.995 117.37 239.981 117.81C239.974 118.091 239.974 118.347 239.981 118.578C240.003 119.024 240.104 119.349 240.284 119.551C240.471 119.753 240.727 119.854 241.052 119.854C241.304 119.854 241.506 119.799 241.657 119.691C241.808 119.583 241.935 119.403 242.036 119.151C242.064 119.079 242.1 119.024 242.144 118.988C242.187 118.945 242.245 118.924 242.317 118.924H243.474C243.546 118.924 243.607 118.952 243.658 119.01C243.715 119.061 243.741 119.122 243.733 119.194C243.726 119.316 243.69 119.461 243.625 119.626C243.568 119.792 243.47 119.962 243.333 120.135C243.203 120.308 243.034 120.47 242.825 120.621C242.616 120.765 242.36 120.884 242.057 120.978C241.762 121.065 241.416 121.108 241.019 121.108ZM247.303 121.108C246.474 121.108 245.814 120.877 245.324 120.416C244.841 119.954 244.585 119.284 244.556 118.404C244.556 118.347 244.556 118.271 244.556 118.177C244.556 118.076 244.556 117.997 244.556 117.939C244.585 117.384 244.711 116.909 244.934 116.512C245.158 116.108 245.472 115.802 245.875 115.593C246.279 115.377 246.751 115.269 247.292 115.269C247.897 115.269 248.402 115.395 248.806 115.647C249.217 115.892 249.523 116.231 249.725 116.663C249.934 117.089 250.039 117.579 250.039 118.134V118.383C250.039 118.455 250.01 118.516 249.952 118.567C249.902 118.617 249.84 118.642 249.768 118.642H246.232C246.232 118.65 246.232 118.664 246.232 118.686C246.232 118.7 246.232 118.714 246.232 118.729C246.239 118.96 246.283 119.172 246.362 119.367C246.448 119.554 246.567 119.706 246.719 119.821C246.877 119.936 247.065 119.994 247.281 119.994C247.461 119.994 247.609 119.969 247.724 119.918C247.84 119.868 247.933 119.807 248.006 119.735C248.085 119.662 248.143 119.601 248.179 119.551C248.243 119.479 248.294 119.435 248.33 119.421C248.373 119.399 248.438 119.389 248.525 119.389H249.649C249.721 119.389 249.779 119.41 249.822 119.453C249.873 119.489 249.894 119.544 249.887 119.616C249.88 119.731 249.819 119.875 249.703 120.048C249.595 120.214 249.433 120.38 249.217 120.546C249 120.704 248.73 120.838 248.406 120.946C248.088 121.054 247.721 121.108 247.303 121.108ZM246.232 117.658H248.352V117.637C248.352 117.377 248.308 117.154 248.222 116.966C248.143 116.772 248.024 116.62 247.865 116.512C247.706 116.404 247.515 116.35 247.292 116.35C247.068 116.35 246.877 116.404 246.719 116.512C246.56 116.62 246.438 116.772 246.351 116.966C246.272 117.154 246.232 117.377 246.232 117.637V117.658ZM253.336 121.108C252.889 121.108 252.504 121.057 252.179 120.957C251.862 120.848 251.602 120.719 251.401 120.567C251.206 120.416 251.058 120.264 250.957 120.113C250.864 119.954 250.813 119.821 250.806 119.713C250.799 119.634 250.824 119.569 250.882 119.518C250.939 119.468 250.997 119.443 251.055 119.443H252.103C252.125 119.443 252.147 119.446 252.168 119.453C252.19 119.461 252.212 119.479 252.233 119.507C252.327 119.572 252.424 119.648 252.525 119.735C252.626 119.814 252.741 119.882 252.871 119.94C253.008 119.998 253.178 120.027 253.379 120.027C253.617 120.027 253.819 119.98 253.985 119.886C254.151 119.785 254.234 119.644 254.234 119.464C254.234 119.334 254.194 119.226 254.115 119.14C254.043 119.053 253.902 118.974 253.693 118.902C253.484 118.83 253.174 118.751 252.763 118.664C252.374 118.578 252.042 118.462 251.768 118.318C251.494 118.174 251.289 117.994 251.152 117.777C251.015 117.554 250.946 117.287 250.946 116.977C250.946 116.696 251.033 116.426 251.206 116.166C251.386 115.907 251.649 115.694 251.995 115.528C252.341 115.355 252.774 115.269 253.293 115.269C253.689 115.269 254.036 115.319 254.331 115.42C254.634 115.514 254.886 115.636 255.088 115.788C255.29 115.932 255.441 116.083 255.542 116.242C255.65 116.393 255.708 116.527 255.715 116.642C255.722 116.714 255.701 116.775 255.65 116.826C255.6 116.876 255.542 116.901 255.477 116.901H254.515C254.479 116.901 254.446 116.898 254.418 116.891C254.389 116.876 254.364 116.858 254.342 116.837C254.255 116.779 254.165 116.714 254.072 116.642C253.985 116.563 253.881 116.494 253.758 116.436C253.635 116.379 253.477 116.35 253.282 116.35C253.044 116.35 252.86 116.404 252.731 116.512C252.608 116.613 252.547 116.743 252.547 116.901C252.547 117.002 252.579 117.096 252.644 117.183C252.709 117.269 252.842 117.348 253.044 117.42C253.246 117.493 253.553 117.568 253.963 117.648C254.454 117.734 254.843 117.864 255.131 118.037C255.42 118.21 255.625 118.412 255.748 118.642C255.877 118.866 255.942 119.107 255.942 119.367C255.942 119.706 255.841 120.009 255.64 120.275C255.438 120.535 255.142 120.74 254.753 120.892C254.371 121.036 253.899 121.108 253.336 121.108Z" fill="#0052CC"/>
<defs>
<filter id="filter0_d_241_1710" x="28.3373" y="59.4741" width="80.6091" height="85.377" filterUnits="userSpaceOnUse" color-interpolation-filters="sRGB">
<feFlood flood-opacity="0" result="BackgroundImageFix"/>
<feColorMatrix in="SourceAlpha" type="matrix" values="0 0 0 0 0 0 0 0 0 0 0 0 0 0 0 0 0 0 127 0" result="hardAlpha"/>
<feOffset dy="2.16273"/>
<feGaussianBlur stdDeviation="1.08136"/>
<feComposite in2="hardAlpha" operator="out"/>
<feColorMatrix type="matrix" values="0 0 0 0 0 0 0 0 0 0 0 0 0 0 0 0 0 0 0.25 0"/>
<feBlend mode="normal" in2="BackgroundImageFix" result="effect1_dropShadow_241_1710"/>
<feBlend mode="normal" in="SourceGraphic" in2="effect1_dropShadow_241_1710" result="shape"/>
</filter>
</defs>
</svg>
