<svg width="146" height="47" viewBox="0 0 146 47" fill="none" xmlns="http://www.w3.org/2000/svg">
<g clip-path="url(#clip0_138_1783)">
<g filter="url(#filter0_d_138_1783)">
<path d="M1.71765 7.32493C1.71765 3.85739 4.90907 1.04639 8.84589 1.04639H42.111C46.0478 1.04639 49.2392 3.85739 49.2392 7.32493V36.6249C49.2392 40.0924 46.0478 42.9034 42.111 42.9034H8.84589C4.90907 42.9034 1.71765 40.0924 1.71765 36.6249V7.32493Z" fill="#0052CC"/>
<path d="M19.0931 39.8517L8.92244 44.4731V44.3391H8.84595V14.8021L42.111 0V9.10895L19.0931 19.3565V21.4998L42.111 11.1183V18.3519L19.0931 28.5994V39.8517Z" fill="white"/>
</g>
<path d="M54.1725 22.2366V12.9899H60.8293V14.0916H55.7179V17.0427H60.5173V18.1445H55.7179V22.2366H54.1725ZM62.0918 22.2366V15.836H63.5478V17.3706H63.3989C63.5575 16.8459 63.8398 16.4481 64.2463 16.177C64.662 15.906 65.2122 15.7486 65.8958 15.7049L66.3859 15.6786L66.4901 16.8066L65.5838 16.8853C64.9397 16.9378 64.449 17.117 64.1123 17.4231C63.7757 17.7291 63.6073 18.1488 63.6073 18.6822V22.2366H62.0918ZM70.936 22.3546C70.1436 22.3546 69.4599 22.2234 68.8857 21.9612C68.3206 21.6901 67.8797 21.3097 67.5631 20.8201C67.2556 20.3217 67.1022 19.7314 67.1022 19.0494C67.1022 18.3849 67.2556 17.8034 67.5631 17.305C67.87 16.8066 68.2908 16.4175 68.8261 16.1377C69.3609 15.8579 69.9701 15.718 70.6537 15.718C71.327 15.718 71.9019 15.8491 72.3771 16.1115C72.8626 16.365 73.2342 16.7279 73.4918 17.2001C73.7495 17.6723 73.8783 18.2362 73.8783 18.8921V19.338H68.2908V18.5248H72.8678L72.6153 18.7084C72.6153 18.0526 72.4515 17.5455 72.1246 17.187C71.7977 16.8285 71.327 16.6492 70.7133 16.6492C70.2478 16.6492 69.851 16.7454 69.5241 16.9378C69.2075 17.1301 68.9647 17.3969 68.7964 17.7378C68.628 18.0789 68.5439 18.4767 68.5439 18.9314V19.0101C68.5439 19.5172 68.6326 19.9457 68.8112 20.2954C68.999 20.6365 69.2716 20.8944 69.6283 21.0693C69.985 21.2441 70.4258 21.3316 70.9509 21.3316C71.3671 21.3316 71.773 21.2748 72.1692 21.1611C72.5752 21.0387 72.9571 20.8507 73.3132 20.5971L73.7592 21.5152C73.4323 21.7776 73.0115 21.983 72.4962 22.1317C71.9809 22.2803 71.461 22.3546 70.936 22.3546ZM78.9167 22.3546C78.1243 22.3546 77.4407 22.2234 76.8664 21.9612C76.3019 21.6901 75.861 21.3097 75.5438 20.8201C75.237 20.3217 75.0835 19.7314 75.0835 19.0494C75.0835 18.3849 75.237 17.8034 75.5438 17.305C75.8513 16.8066 76.2721 16.4175 76.8069 16.1377C77.3417 15.8579 77.9514 15.718 78.6345 15.718C79.3084 15.718 79.8826 15.8491 80.3584 16.1115C80.8439 16.365 81.215 16.7279 81.4726 17.2001C81.7302 17.6723 81.8591 18.2362 81.8591 18.8921V19.338H76.2721V18.5248H80.8485L80.596 18.7084C80.596 18.0526 80.4328 17.5455 80.1059 17.187C79.779 16.8285 79.3084 16.6492 78.694 16.6492C78.2285 16.6492 77.8323 16.7454 77.5054 16.9378C77.1882 17.1301 76.9454 17.3969 76.7771 17.7378C76.6088 18.0789 76.5246 18.4767 76.5246 18.9314V19.0101C76.5246 19.5172 76.6139 19.9457 76.792 20.2954C76.9804 20.6365 77.2529 20.8944 77.6096 21.0693C77.9657 21.2441 78.4066 21.3316 78.9316 21.3316C79.3479 21.3316 79.7538 21.2748 80.1506 21.1611C80.5565 21.0387 80.9378 20.8507 81.2945 20.5971L81.74 21.5152C81.413 21.7776 80.9922 21.983 80.4769 22.1317C79.9622 22.2803 79.4418 22.3546 78.9167 22.3546ZM83.6586 22.2366V12.9899H90.3156V14.0916H85.2039V17.0427H90.0036V18.1445H85.2039V22.2366H83.6586ZM94.5971 22.3546C93.8643 22.3546 93.2305 22.2191 92.6951 21.948C92.1701 21.677 91.759 21.2922 91.4619 20.7938C91.1647 20.2954 91.0164 19.7096 91.0164 19.0363C91.0164 18.3543 91.1647 17.7685 91.4619 17.2788C91.759 16.7804 92.1701 16.3956 92.6951 16.1246C93.2305 15.8535 93.8643 15.718 94.5971 15.718C95.3203 15.718 95.9443 15.8535 96.4694 16.1246C97.0047 16.3956 97.4204 16.7804 97.7181 17.2788C98.0153 17.7772 98.1635 18.363 98.1635 19.0363C98.1635 19.7096 98.0153 20.2954 97.7181 20.7938C97.4204 21.2922 97.0047 21.677 96.4694 21.948C95.9443 22.2191 95.3203 22.3546 94.5971 22.3546ZM94.5823 21.3316C95.2063 21.3316 95.7067 21.1349 96.0835 20.7414C96.4596 20.3479 96.648 19.7795 96.648 19.0363C96.648 18.2843 96.4596 17.716 96.0835 17.3313C95.7067 16.9465 95.2063 16.7542 94.5823 16.7542C93.9685 16.7542 93.4732 16.9465 93.0965 17.3313C92.7203 17.716 92.532 18.2843 92.532 19.0363C92.532 19.7795 92.7203 20.3479 93.0965 20.7414C93.4732 21.1349 93.9685 21.3316 94.5823 21.3316ZM102.435 22.3546C101.85 22.3546 101.36 22.2585 100.963 22.0661C100.577 21.8737 100.285 21.5896 100.087 21.2136C99.8984 20.8288 99.8045 20.3479 99.8045 19.7708V15.836H101.305V19.7839C101.305 20.1249 101.355 20.4091 101.454 20.6365C101.563 20.8638 101.727 21.03 101.944 21.1349C102.172 21.2398 102.454 21.2922 102.791 21.2922C103.168 21.2922 103.5 21.2179 103.787 21.0693C104.074 20.9206 104.297 20.7064 104.455 20.4266C104.614 20.1468 104.693 19.8233 104.693 19.456V15.836H106.194V22.2366H104.738V20.8332H104.931C104.733 21.3229 104.416 21.6988 103.98 21.9612C103.544 22.2234 103.029 22.3546 102.435 22.3546ZM108.309 22.2366V15.836H109.765V17.2001H109.602C109.819 16.7104 110.161 16.3432 110.627 16.0983C111.093 15.8448 111.628 15.718 112.232 15.718C112.806 15.718 113.282 15.8142 113.658 16.0066C114.044 16.1902 114.332 16.4743 114.52 16.8591C114.708 17.2351 114.802 17.7116 114.802 18.2887V22.2366H113.302V18.3674C113.302 18.0002 113.247 17.7029 113.138 17.4755C113.029 17.2394 112.866 17.0646 112.648 16.9509C112.43 16.8372 112.147 16.7804 111.801 16.7804C111.405 16.7804 111.053 16.8547 110.746 17.0034C110.449 17.152 110.216 17.3662 110.047 17.6461C109.889 17.9258 109.81 18.2494 109.81 18.6166V22.2366H108.309ZM119.634 22.3546C119 22.3546 118.44 22.2234 117.955 21.9612C117.48 21.6901 117.108 21.3054 116.841 20.807C116.573 20.2998 116.439 19.7096 116.439 19.0363C116.439 18.3455 116.573 17.7553 116.841 17.2657C117.108 16.776 117.48 16.3956 117.955 16.1246C118.44 15.8535 119 15.718 119.634 15.718C120.268 15.718 120.813 15.8579 121.269 16.1377C121.734 16.4087 122.046 16.776 122.205 17.2394H122.041V12.9899H123.542V22.2366H122.071V20.7938H122.22C122.061 21.266 121.749 21.6464 121.284 21.9349C120.828 22.2147 120.278 22.3546 119.634 22.3546ZM120.021 21.3316C120.635 21.3316 121.13 21.1349 121.506 20.7414C121.883 20.3479 122.071 19.7795 122.071 19.0363C122.071 18.2843 121.883 17.716 121.506 17.3313C121.13 16.9465 120.635 16.7542 120.021 16.7542C119.397 16.7542 118.896 16.9465 118.52 17.3313C118.143 17.716 117.955 18.2843 117.955 19.0363C117.955 19.7795 118.143 20.3479 118.52 20.7414C118.896 21.1349 119.397 21.3316 120.021 21.3316ZM125.649 22.2366V15.836H127.106V17.3706H126.957C127.116 16.8459 127.398 16.4481 127.804 16.177C128.22 15.906 128.77 15.7486 129.453 15.7049L129.944 15.6786L130.048 16.8066L129.141 16.8853C128.498 16.9378 128.007 17.117 127.67 17.4231C127.334 17.7291 127.165 18.1488 127.165 18.6822V22.2366H125.649ZM132.385 24.5975L133.812 21.7906V22.3546L130.647 15.836H132.252L134.689 21.148H134.272L136.739 15.836H138.284L133.96 24.5975H132.385Z" fill="#0052CC"/>
<path d="M55.1334 31.8934C54.7577 31.8934 54.4337 31.8387 54.1613 31.7294C53.8889 31.6202 53.6763 31.4562 53.5236 31.2376C53.3709 31.0153 53.2883 30.7367 53.276 30.4015C53.2718 30.2448 53.2698 30.0899 53.2698 29.937C53.2698 29.7803 53.2718 29.6218 53.276 29.4615C53.2883 29.1336 53.3709 28.8585 53.5236 28.6363C53.6805 28.4104 53.8951 28.241 54.1675 28.128C54.444 28.0151 54.766 27.9586 55.1334 27.9586C55.4966 27.9586 55.8144 28.0151 56.0868 28.128C56.3634 28.241 56.58 28.4104 56.7369 28.6363C56.8937 28.8585 56.9763 29.1336 56.9845 29.4615C56.9928 29.6218 56.997 29.7803 56.997 29.937C56.997 30.0899 56.9928 30.2448 56.9845 30.4015C56.9722 30.7367 56.8896 31.0153 56.7369 31.2376C56.5841 31.4562 56.3716 31.6202 56.0992 31.7294C55.8268 31.8387 55.5048 31.8934 55.1334 31.8934ZM55.1334 31.1884C55.3727 31.1884 55.5688 31.1247 55.7215 30.9971C55.8784 30.866 55.9609 30.6583 55.9692 30.3741C55.9774 30.2138 55.9815 30.0645 55.9815 29.926C55.9815 29.7839 55.9774 29.6345 55.9692 29.4779C55.965 29.2884 55.9258 29.1336 55.8515 29.0134C55.7773 28.8932 55.6782 28.8057 55.5544 28.751C55.4346 28.6928 55.2943 28.6636 55.1334 28.6636C54.9724 28.6636 54.83 28.6928 54.7061 28.751C54.5823 28.8057 54.4832 28.8932 54.409 29.0134C54.3388 29.1336 54.2996 29.2884 54.2913 29.4779C54.2872 29.6345 54.2851 29.7839 54.2851 29.926C54.2851 30.0645 54.2872 30.2138 54.2913 30.3741C54.3037 30.6583 54.3862 30.866 54.5389 30.9971C54.6917 31.1247 54.8898 31.1884 55.1334 31.1884ZM57.8458 31.8387C57.8045 31.8387 57.7696 31.826 57.7404 31.8005C57.7118 31.775 57.6975 31.7422 57.6975 31.7021V29.1336C57.6975 29.0935 57.7118 29.0607 57.7404 29.0352C57.7696 29.0097 57.8045 28.997 57.8458 28.997H58.4527C58.4979 28.997 58.5351 29.0097 58.5643 29.0352C58.5929 29.0607 58.6072 29.0935 58.6072 29.1336V29.3467C58.7149 29.2301 58.8529 29.1336 59.0223 29.0571C59.1912 28.9806 59.3979 28.9423 59.6413 28.9423C59.8852 28.9423 60.0976 28.9915 60.2791 29.0899C60.4646 29.1846 60.6095 29.3249 60.7125 29.5107C60.8196 29.6928 60.8734 29.9151 60.8734 30.1774V31.7021C60.8734 31.7422 60.8568 31.775 60.8242 31.8005C60.795 31.826 60.76 31.8387 60.7188 31.8387H60.0627C60.0169 31.8387 59.9796 31.826 59.951 31.8005C59.9218 31.775 59.9075 31.7422 59.9075 31.7021V30.2102C59.9075 30.0171 59.8537 29.8677 59.7466 29.7621C59.6436 29.6527 59.4907 29.5981 59.2886 29.5981C59.0945 29.5981 58.9399 29.6527 58.8242 29.7621C58.7086 29.8677 58.6508 30.0171 58.6508 30.2102V31.7021C58.6508 31.7422 58.6364 31.775 58.6072 31.8005C58.5786 31.826 58.5437 31.8387 58.5025 31.8387H57.8458ZM63.0519 31.8934C62.5767 31.8934 62.1994 31.7768 61.9189 31.5437C61.6423 31.3105 61.4958 30.9716 61.4792 30.5271C61.4792 30.498 61.4792 30.4598 61.4792 30.4124C61.4792 30.3614 61.4792 30.3213 61.4792 30.2921C61.4958 30.0116 61.5679 29.7711 61.6956 29.5708C61.8238 29.3667 62.003 29.2119 62.2343 29.1063C62.4657 28.997 62.7359 28.9423 63.0456 28.9423C63.392 28.9423 63.6812 29.0061 63.9125 29.1336C64.1478 29.2575 64.323 29.4287 64.4387 29.6473C64.5583 29.8623 64.6179 30.11 64.6179 30.3905V30.5162C64.6179 30.5527 64.6018 30.5836 64.5686 30.6091C64.5394 30.6346 64.5045 30.6474 64.4633 30.6474H62.4387C62.4387 30.651 62.4387 30.6583 62.4387 30.6693C62.4387 30.6765 62.4387 30.6838 62.4387 30.6911C62.4428 30.8077 62.4674 30.9152 62.5132 31.0135C62.5624 31.1083 62.6305 31.1848 62.7176 31.2431C62.808 31.3014 62.9157 31.3305 63.0393 31.3305C63.1424 31.3305 63.2271 31.3178 63.293 31.2922C63.3594 31.2668 63.4127 31.2358 63.4539 31.1993C63.4997 31.1629 63.5323 31.1319 63.5529 31.1065C63.5901 31.07 63.6193 31.0481 63.64 31.0409C63.6646 31.0299 63.7018 31.0245 63.751 31.0245H64.3951C64.4364 31.0245 64.4696 31.0354 64.4942 31.0573C64.5234 31.0755 64.5354 31.1028 64.5314 31.1393C64.5274 31.1975 64.4919 31.2704 64.4261 31.3578C64.3642 31.4416 64.2715 31.5254 64.1478 31.6092C64.0236 31.6894 63.869 31.7568 63.6829 31.8114C63.5014 31.8661 63.2913 31.8934 63.0519 31.8934ZM62.4387 30.1501H63.652V30.1392C63.652 30.008 63.6274 29.8951 63.5781 29.8003C63.5323 29.702 63.4642 29.6254 63.3737 29.5708C63.2827 29.5161 63.1733 29.4888 63.0456 29.4888C62.9174 29.4888 62.808 29.5161 62.7176 29.5708C62.6265 29.6254 62.5561 29.702 62.5069 29.8003C62.4616 29.8951 62.4387 30.008 62.4387 30.1392V30.1501ZM66.7581 31.8387C66.7128 31.8387 66.6756 31.826 66.647 31.8005C66.6178 31.775 66.6035 31.7422 66.6035 31.7021V28.0953C66.6035 28.0552 66.6178 28.0224 66.647 27.9969C66.6756 27.9714 66.7128 27.9586 66.7581 27.9586H67.4268C67.468 27.9586 67.5029 27.9714 67.5321 27.9969C67.5608 28.0224 67.5757 28.0552 67.5757 28.0953V29.3249C67.6867 29.2083 67.823 29.1154 67.9839 29.0461C68.1448 28.977 68.3389 28.9423 68.5662 28.9423C68.8095 28.9423 69.0242 28.9915 69.2097 29.0899C69.3998 29.1846 69.5487 29.3249 69.6557 29.5107C69.7628 29.6928 69.8166 29.9151 69.8166 30.1774V31.7021C69.8166 31.7422 69.8023 31.775 69.7731 31.8005C69.7445 31.826 69.7073 31.8387 69.662 31.8387H68.987C68.9458 31.8387 68.9108 31.826 68.8816 31.8005C68.853 31.775 68.8387 31.7422 68.8387 31.7021V30.2102C68.8387 30.0171 68.7849 29.8677 68.6772 29.7621C68.5702 29.6527 68.4173 29.5981 68.2192 29.5981C68.0251 29.5981 67.8682 29.6527 67.7486 29.7621C67.6335 29.8677 67.5757 30.0171 67.5757 30.2102V31.7021C67.5757 31.7422 67.5608 31.775 67.5321 31.8005C67.5029 31.826 67.468 31.8387 67.4268 31.8387H66.7581ZM71.7404 31.8934C71.5011 31.8934 71.2881 31.846 71.1026 31.7513C70.9211 31.6529 70.7785 31.5127 70.6754 31.3305C70.5764 31.1447 70.5266 30.9206 70.5266 30.6583V29.1336C70.5266 29.0935 70.5409 29.0607 70.5701 29.0352C70.5987 29.0097 70.6342 28.997 70.6754 28.997H71.3316C71.3768 28.997 71.414 29.0097 71.4432 29.0352C71.4719 29.0607 71.4862 29.0935 71.4862 29.1336V30.6255C71.4862 31.0336 71.6888 31.2376 72.0931 31.2376C72.2872 31.2376 72.44 31.1848 72.5511 31.0791C72.6668 30.9698 72.7246 30.8186 72.7246 30.6255V29.1336C72.7246 29.0935 72.7389 29.0607 72.7681 29.0352C72.7967 29.0097 72.8339 28.997 72.8792 28.997H73.5359C73.5771 28.997 73.612 29.0097 73.6407 29.0352C73.6699 29.0607 73.6842 29.0935 73.6842 29.1336V31.7021C73.6842 31.7422 73.6699 31.775 73.6407 31.8005C73.612 31.826 73.5771 31.8387 73.5359 31.8387H72.929C72.8838 31.8387 72.8465 31.826 72.8173 31.8005C72.7887 31.775 72.7744 31.7422 72.7744 31.7021V31.489C72.6668 31.6202 72.5288 31.7203 72.3593 31.7896C72.1898 31.8588 71.9837 31.8934 71.7404 31.8934ZM76.3334 31.8934C76.0981 31.8934 75.9022 31.8588 75.7454 31.7896C75.5885 31.7167 75.4602 31.6256 75.3612 31.5163V31.7021C75.3612 31.7422 75.3469 31.775 75.3177 31.8005C75.289 31.826 75.2518 31.8387 75.2066 31.8387H74.618C74.5728 31.8387 74.5356 31.826 74.5069 31.8005C74.4777 31.775 74.4634 31.7422 74.4634 31.7021V28.0953C74.4634 28.0552 74.4777 28.0224 74.5069 27.9969C74.5356 27.9714 74.5728 27.9586 74.618 27.9586H75.2558C75.2971 27.9586 75.3325 27.9714 75.3612 27.9969C75.3904 28.0224 75.4047 28.0552 75.4047 28.0953V29.2866C75.5077 29.1846 75.636 29.1026 75.7883 29.0407C75.9412 28.9751 76.1227 28.9423 76.3334 28.9423C76.5481 28.9423 76.7336 28.9751 76.8905 29.0407C77.0513 29.1026 77.1876 29.1919 77.2993 29.3085C77.4103 29.4214 77.4951 29.5562 77.5529 29.7129C77.6147 29.8695 77.6479 30.0426 77.6519 30.2321C77.656 30.2977 77.6582 30.3596 77.6582 30.4179C77.6582 30.4725 77.656 30.5344 77.6519 30.6037C77.6439 30.7968 77.6084 30.9734 77.5466 31.1337C77.4888 31.2904 77.4046 31.4271 77.293 31.5437C77.1859 31.6566 77.0513 31.744 76.8905 31.8059C76.7336 31.8643 76.5481 31.8934 76.3334 31.8934ZM76.0545 31.2376C76.2114 31.2376 76.3351 31.2084 76.4261 31.1502C76.5172 31.0882 76.5807 31.0081 76.6179 30.9097C76.6591 30.8113 76.6843 30.7039 76.6924 30.5873C76.7004 30.4743 76.7004 30.3614 76.6924 30.2484C76.6843 30.1318 76.6591 30.0244 76.6179 29.926C76.5807 29.8277 76.5172 29.7493 76.4261 29.691C76.3351 29.6291 76.2114 29.5981 76.0545 29.5981C75.9062 29.5981 75.7843 29.6273 75.6893 29.6855C75.5988 29.7439 75.5284 29.8186 75.4791 29.9096C75.4333 29.9971 75.4087 30.0918 75.4047 30.1938C75.4007 30.2594 75.3984 30.3268 75.3984 30.396C75.3984 30.4652 75.4007 30.5344 75.4047 30.6037C75.4127 30.713 75.4373 30.815 75.4791 30.9097C75.5203 31.0044 75.5885 31.0828 75.683 31.1447C75.778 31.2066 75.9022 31.2376 76.0545 31.2376ZM79.9044 31.8387C79.8591 31.8387 79.8219 31.826 79.7927 31.8005C79.7641 31.775 79.7498 31.7422 79.7498 31.7021V28.1499C79.7498 28.1098 79.7641 28.077 79.7927 28.0516C79.8219 28.026 79.8591 28.0133 79.9044 28.0133H82.7087C82.7545 28.0133 82.7917 28.026 82.8203 28.0516C82.8495 28.077 82.8639 28.1098 82.8639 28.1499V28.5871C82.8639 28.6235 82.8495 28.6545 82.8203 28.68C82.7917 28.7055 82.7545 28.7183 82.7087 28.7183H80.7031V29.5763H82.573C82.6182 29.5763 82.6555 29.589 82.6841 29.6145C82.7133 29.64 82.7276 29.6728 82.7276 29.7129V30.1173C82.7276 30.1537 82.7133 30.1847 82.6841 30.2102C82.6555 30.2357 82.6182 30.2484 82.573 30.2484H80.7031V31.1337H82.7585C82.8037 31.1337 82.841 31.1465 82.8702 31.172C82.8988 31.1975 82.9131 31.2303 82.9131 31.2704V31.7021C82.9131 31.7422 82.8988 31.775 82.8702 31.8005C82.841 31.826 82.8037 31.8387 82.7585 31.8387H79.9044ZM83.7296 31.8387C83.6883 31.8387 83.6534 31.826 83.6248 31.8005C83.5956 31.775 83.5813 31.7422 83.5813 31.7021V29.1336C83.5813 29.0935 83.5956 29.0607 83.6248 29.0352C83.6534 29.0097 83.6883 28.997 83.7296 28.997H84.3365C84.3817 28.997 84.4189 29.0097 84.4481 29.0352C84.4767 29.0607 84.491 29.0935 84.491 29.1336V29.3467C84.5987 29.2301 84.7367 29.1336 84.9061 29.0571C85.0756 28.9806 85.2817 28.9423 85.5251 28.9423C85.769 28.9423 85.9814 28.9915 86.1629 29.0899C86.349 29.1846 86.4932 29.3249 86.5963 29.5107C86.7039 29.6928 86.7572 29.9151 86.7572 30.1774V31.7021C86.7572 31.7422 86.7406 31.775 86.708 31.8005C86.6788 31.826 86.6438 31.8387 86.6026 31.8387H85.9465C85.9007 31.8387 85.864 31.826 85.8348 31.8005C85.8062 31.775 85.7913 31.7422 85.7913 31.7021V30.2102C85.7913 30.0171 85.7381 29.8677 85.6304 29.7621C85.5274 29.6527 85.3745 29.5981 85.1724 29.5981C84.9783 29.5981 84.8237 29.6527 84.708 29.7621C84.5924 29.8677 84.5346 30.0171 84.5346 30.2102V31.7021C84.5346 31.7422 84.5202 31.775 84.491 31.8005C84.4624 31.826 84.4275 31.8387 84.3863 31.8387H83.7296ZM88.6941 31.8934C88.4874 31.8934 88.3042 31.8643 88.1433 31.8059C87.9819 31.744 87.8456 31.6566 87.7345 31.5437C87.6229 31.4271 87.5382 31.2904 87.4803 31.1337C87.4231 30.9734 87.3876 30.7968 87.3755 30.6037C87.371 30.5344 87.3692 30.4725 87.3692 30.4179C87.3692 30.3596 87.371 30.2977 87.3755 30.2321C87.3836 30.0426 87.4168 29.8695 87.4746 29.7129C87.5364 29.5562 87.6212 29.4214 87.7282 29.3085C87.8399 29.1919 87.9762 29.1026 88.137 29.0407C88.3019 28.9751 88.4874 28.9423 88.6941 28.9423C88.9088 28.9423 89.0926 28.9751 89.2449 29.0407C89.3978 29.1026 89.5238 29.1846 89.6228 29.2866V28.0953C89.6228 28.0552 89.6371 28.0224 89.6663 27.9969C89.6949 27.9714 89.7322 27.9586 89.7774 27.9586H90.4152C90.4564 27.9586 90.4914 27.9714 90.5206 27.9969C90.5492 28.0224 90.5641 28.0552 90.5641 28.0953V31.7021C90.5641 31.7422 90.5492 31.775 90.5206 31.8005C90.4914 31.826 90.4564 31.8387 90.4152 31.8387H89.8209C89.7797 31.8387 89.7448 31.826 89.7156 31.8005C89.6869 31.775 89.672 31.7422 89.672 31.7021V31.5163C89.569 31.6256 89.439 31.7167 89.2821 31.7896C89.1253 31.8588 88.9294 31.8934 88.6941 31.8934ZM88.9787 31.2376C89.1316 31.2376 89.2535 31.2066 89.344 31.1447C89.439 31.0828 89.5071 31.0044 89.5484 30.9097C89.5942 30.815 89.6188 30.713 89.6228 30.6037C89.6308 30.5344 89.6354 30.4652 89.6354 30.396C89.6354 30.3268 89.6308 30.2594 89.6228 30.1938C89.6188 30.0918 89.5942 29.9971 89.5484 29.9096C89.5031 29.8186 89.4327 29.7439 89.3382 29.6855C89.2472 29.6273 89.1275 29.5981 88.9787 29.5981C88.8218 29.5981 88.6981 29.6291 88.6077 29.691C88.5166 29.7493 88.4508 29.8277 88.409 29.926C88.3724 30.0244 88.3495 30.1318 88.3414 30.2484C88.3288 30.3614 88.3288 30.4743 88.3414 30.5873C88.3495 30.7039 88.3724 30.8113 88.409 30.9097C88.4508 31.0081 88.5166 31.0882 88.6077 31.1502C88.6981 31.2084 88.8218 31.2376 88.9787 31.2376ZM91.5053 31.8387C91.4601 31.8387 91.4229 31.826 91.3937 31.8005C91.3651 31.775 91.3507 31.7422 91.3507 31.7021V28.0953C91.3507 28.0552 91.3651 28.0224 91.3937 27.9969C91.4229 27.9714 91.4601 27.9586 91.5053 27.9586H92.1243C92.1661 27.9586 92.201 27.9714 92.2296 27.9969C92.2588 28.0224 92.2731 28.0552 92.2731 28.0953V31.7021C92.2731 31.7422 92.2588 31.775 92.2296 31.8005C92.201 31.826 92.1661 31.8387 92.1243 31.8387H91.5053ZM94.4918 31.8934C94.0171 31.8934 93.6398 31.7768 93.3593 31.5437C93.0827 31.3105 92.9361 30.9716 92.9195 30.5271C92.9195 30.498 92.9195 30.4598 92.9195 30.4124C92.9195 30.3614 92.9195 30.3213 92.9195 30.2921C92.9361 30.0116 93.0083 29.7711 93.136 29.5708C93.2642 29.3667 93.4434 29.2119 93.6747 29.1063C93.906 28.997 94.1763 28.9423 94.486 28.9423C94.8324 28.9423 95.1216 29.0061 95.3529 29.1336C95.5876 29.2575 95.7634 29.4287 95.879 29.6473C95.9987 29.8623 96.0583 30.11 96.0583 30.3905V30.5162C96.0583 30.5527 96.0416 30.5836 96.009 30.6091C95.9798 30.6346 95.9449 30.6474 95.9037 30.6474H93.8791C93.8791 30.651 93.8791 30.6583 93.8791 30.6693C93.8791 30.6765 93.8791 30.6838 93.8791 30.6911C93.8831 30.8077 93.9078 30.9152 93.9536 31.0135C94.0028 31.1083 94.0709 31.1848 94.158 31.2431C94.2484 31.3014 94.3561 31.3305 94.4797 31.3305C94.5828 31.3305 94.6675 31.3178 94.7334 31.2922C94.7998 31.2668 94.853 31.2358 94.8943 31.1993C94.9401 31.1629 94.9727 31.1319 94.9933 31.1065C95.0305 31.07 95.0597 31.0481 95.0803 31.0409C95.105 31.0299 95.1422 31.0245 95.1914 31.0245H95.8355C95.8768 31.0245 95.91 31.0354 95.9346 31.0573C95.9638 31.0755 95.9758 31.1028 95.9718 31.1393C95.9678 31.1975 95.9323 31.2704 95.8665 31.3578C95.8046 31.4416 95.7119 31.5254 95.5876 31.6092C95.464 31.6894 95.3094 31.7568 95.1233 31.8114C94.9418 31.8661 94.7317 31.8934 94.4918 31.8934ZM93.8791 30.1501H95.0924V30.1392C95.0924 30.008 95.0677 29.8951 95.0185 29.8003C94.9727 29.702 94.9046 29.6254 94.8141 29.5708C94.7231 29.5161 94.6137 29.4888 94.486 29.4888C94.3578 29.4888 94.2484 29.5161 94.158 29.5708C94.0669 29.6254 93.9965 29.702 93.9473 29.8003C93.902 29.8951 93.8791 30.008 93.8791 30.1392V30.1501ZM97.9465 31.8934C97.6906 31.8934 97.4696 31.8679 97.2841 31.8169C97.1026 31.7622 96.9537 31.6966 96.8381 31.6202C96.727 31.5437 96.6423 31.4671 96.5844 31.3906C96.5306 31.3105 96.502 31.2431 96.498 31.1884C96.4934 31.1484 96.5083 31.1156 96.5409 31.09C96.5741 31.0646 96.6073 31.0518 96.64 31.0518H97.2406C97.2532 31.0518 97.2658 31.0536 97.2778 31.0573C97.2904 31.0609 97.3024 31.07 97.315 31.0846C97.3688 31.1174 97.4244 31.1556 97.4822 31.1993C97.54 31.2394 97.6059 31.274 97.6803 31.3032C97.7587 31.3323 97.8555 31.3469 97.9711 31.3469C98.1074 31.3469 98.2231 31.3232 98.3181 31.2759C98.4131 31.2249 98.4607 31.1538 98.4607 31.0627C98.4607 30.9971 98.4378 30.9425 98.3925 30.8988C98.3513 30.855 98.2706 30.815 98.1509 30.7786C98.0313 30.7421 97.8538 30.7021 97.6185 30.6583C97.3957 30.6146 97.2056 30.5563 97.0488 30.4834C96.8919 30.4106 96.7745 30.3195 96.6961 30.2102C96.6176 30.0973 96.5781 29.9624 96.5781 29.8058C96.5781 29.6637 96.6279 29.5271 96.727 29.3959C96.83 29.2648 96.9806 29.1573 97.1787 29.0735C97.3768 28.986 97.6247 28.9423 97.9219 28.9423C98.1486 28.9423 98.3467 28.9678 98.5162 29.0188C98.6897 29.0662 98.834 29.1281 98.9496 29.2046C99.0653 29.2775 99.1517 29.354 99.2096 29.4342C99.2714 29.5107 99.3046 29.5781 99.3086 29.6364C99.3126 29.6728 99.3006 29.7038 99.2714 29.7293C99.2428 29.7548 99.2096 29.7675 99.1724 29.7675H98.6216C98.6009 29.7675 98.582 29.7657 98.5654 29.7621C98.5494 29.7548 98.5345 29.7457 98.5225 29.7348C98.4727 29.7056 98.4212 29.6728 98.3673 29.6364C98.3181 29.5963 98.258 29.5617 98.1881 29.5325C98.1177 29.5034 98.0272 29.4888 97.9156 29.4888C97.7793 29.4888 97.674 29.5161 97.5996 29.5708C97.5297 29.6218 97.4948 29.6874 97.4948 29.7675C97.4948 29.8186 97.5131 29.8659 97.5503 29.9096C97.5875 29.9533 97.6637 29.9934 97.7793 30.0299C97.895 30.0663 98.0702 30.1045 98.3055 30.1446C98.5861 30.1883 98.8093 30.2539 98.9742 30.3414C99.1391 30.4288 99.2571 30.5308 99.3269 30.6474C99.4014 30.7603 99.4386 30.8824 99.4386 31.0135C99.4386 31.1848 99.3808 31.3378 99.2651 31.4726C99.1494 31.6037 98.9805 31.7076 98.7578 31.7841C98.5391 31.8569 98.2683 31.8934 97.9465 31.8934ZM101.302 31.8934C101.046 31.8934 100.825 31.8679 100.64 31.8169C100.458 31.7622 100.309 31.6966 100.194 31.6202C100.083 31.5437 99.998 31.4671 99.9401 31.3906C99.8863 31.3105 99.8577 31.2431 99.8537 31.1884C99.8491 31.1484 99.864 31.1156 99.8966 31.09C99.9298 31.0646 99.963 31.0518 99.9957 31.0518H100.596C100.609 31.0518 100.621 31.0536 100.633 31.0573C100.646 31.0609 100.658 31.07 100.671 31.0846C100.725 31.1174 100.78 31.1556 100.838 31.1993C100.896 31.2394 100.962 31.274 101.036 31.3032C101.114 31.3323 101.211 31.3469 101.327 31.3469C101.463 31.3469 101.579 31.3232 101.674 31.2759C101.769 31.2249 101.816 31.1538 101.816 31.0627C101.816 30.9971 101.793 30.9425 101.748 30.8988C101.706 30.855 101.626 30.815 101.507 30.7786C101.387 30.7421 101.209 30.7021 100.974 30.6583C100.751 30.6146 100.561 30.5563 100.404 30.4834C100.248 30.4106 100.13 30.3195 100.052 30.2102C99.9733 30.0973 99.9338 29.9624 99.9338 29.8058C99.9338 29.6637 99.9837 29.5271 100.083 29.3959C100.186 29.2648 100.336 29.1573 100.534 29.0735C100.733 28.986 100.98 28.9423 101.278 28.9423C101.504 28.9423 101.702 28.9678 101.872 29.0188C102.045 29.0662 102.19 29.1281 102.305 29.2046C102.421 29.2775 102.507 29.354 102.565 29.4342C102.627 29.5107 102.66 29.5781 102.664 29.6364C102.668 29.6728 102.656 29.7038 102.627 29.7293C102.598 29.7548 102.565 29.7675 102.528 29.7675H101.977C101.957 29.7675 101.938 29.7657 101.921 29.7621C101.905 29.7548 101.89 29.7457 101.878 29.7348C101.828 29.7056 101.777 29.6728 101.723 29.6364C101.674 29.5963 101.614 29.5617 101.544 29.5325C101.473 29.5034 101.383 29.4888 101.271 29.4888C101.135 29.4888 101.03 29.5161 100.955 29.5708C100.885 29.6218 100.85 29.6874 100.85 29.7675C100.85 29.8186 100.869 29.8659 100.906 29.9096C100.943 29.9533 101.019 29.9934 101.135 30.0299C101.251 30.0663 101.426 30.1045 101.661 30.1446C101.942 30.1883 102.165 30.2539 102.33 30.3414C102.495 30.4288 102.613 30.5308 102.683 30.6474C102.757 30.7603 102.794 30.8824 102.794 31.0135C102.794 31.1848 102.736 31.3378 102.621 31.4726C102.505 31.6037 102.336 31.7076 102.114 31.7841C101.894 31.8569 101.624 31.8934 101.302 31.8934ZM104.904 31.8387C104.862 31.8387 104.827 31.826 104.798 31.8005C104.77 31.775 104.755 31.7422 104.755 31.7021V29.1336C104.755 29.0972 104.77 29.0662 104.798 29.0407C104.827 29.0115 104.862 28.997 104.904 28.997H105.51C105.552 28.997 105.587 29.0115 105.616 29.0407C105.648 29.0662 105.665 29.0972 105.665 29.1336V29.3522C105.768 29.2392 105.894 29.1518 106.043 29.0899C106.196 29.0279 106.371 28.997 106.569 28.997H106.835C106.877 28.997 106.911 29.0097 106.941 29.0352C106.969 29.0607 106.984 29.0935 106.984 29.1336V29.6036C106.984 29.6436 106.969 29.6764 106.941 29.702C106.911 29.7274 106.877 29.7402 106.835 29.7402H106.29C106.109 29.7402 105.967 29.7858 105.863 29.8768C105.76 29.9643 105.709 30.0899 105.709 30.2539V31.7021C105.709 31.7422 105.694 31.775 105.665 31.8005C105.636 31.826 105.599 31.8387 105.554 31.8387H104.904ZM108.846 31.8934C108.371 31.8934 107.994 31.7768 107.712 31.5437C107.436 31.3105 107.29 30.9716 107.273 30.5271C107.273 30.498 107.273 30.4598 107.273 30.4124C107.273 30.3614 107.273 30.3213 107.273 30.2921C107.29 30.0116 107.362 29.7711 107.49 29.5708C107.618 29.3667 107.797 29.2119 108.029 29.1063C108.26 28.997 108.53 28.9423 108.84 28.9423C109.186 28.9423 109.475 29.0061 109.706 29.1336C109.941 29.2575 110.117 29.4287 110.233 29.6473C110.353 29.8623 110.412 30.11 110.412 30.3905V30.5162C110.412 30.5527 110.395 30.5836 110.363 30.6091C110.334 30.6346 110.299 30.6474 110.257 30.6474H108.233C108.233 30.651 108.233 30.6583 108.233 30.6693C108.233 30.6765 108.233 30.6838 108.233 30.6911C108.237 30.8077 108.262 30.9152 108.307 31.0135C108.357 31.1083 108.425 31.1848 108.511 31.2431C108.602 31.3014 108.709 31.3305 108.834 31.3305C108.937 31.3305 109.021 31.3178 109.087 31.2922C109.153 31.2668 109.207 31.2358 109.248 31.1993C109.294 31.1629 109.327 31.1319 109.347 31.1065C109.384 31.07 109.414 31.0481 109.434 31.0409C109.459 31.0299 109.496 31.0245 109.545 31.0245H110.189C110.231 31.0245 110.264 31.0354 110.288 31.0573C110.317 31.0755 110.33 31.1028 110.326 31.1393C110.322 31.1975 110.286 31.2704 110.22 31.3578C110.158 31.4416 110.066 31.5254 109.941 31.6092C109.818 31.6894 109.663 31.7568 109.477 31.8114C109.296 31.8661 109.085 31.8934 108.846 31.8934ZM108.233 30.1501H109.446V30.1392C109.446 30.008 109.422 29.8951 109.372 29.8003C109.327 29.702 109.258 29.6254 109.168 29.5708C109.077 29.5161 108.968 29.4888 108.84 29.4888C108.712 29.4888 108.602 29.5161 108.511 29.5708C108.421 29.6254 108.35 29.702 108.301 29.8003C108.255 29.8951 108.233 30.008 108.233 30.1392V30.1501ZM112.3 31.8934C112.044 31.8934 111.823 31.8679 111.638 31.8169C111.456 31.7622 111.308 31.6966 111.192 31.6202C111.081 31.5437 110.996 31.4671 110.938 31.3906C110.884 31.3105 110.856 31.2431 110.852 31.1884C110.847 31.1484 110.862 31.1156 110.895 31.09C110.928 31.0646 110.961 31.0518 110.994 31.0518H111.594C111.607 31.0518 111.619 31.0536 111.632 31.0573C111.644 31.0609 111.656 31.07 111.669 31.0846C111.723 31.1174 111.778 31.1556 111.836 31.1993C111.894 31.2394 111.96 31.274 112.034 31.3032C112.113 31.3323 112.209 31.3469 112.325 31.3469C112.461 31.3469 112.577 31.3232 112.672 31.2759C112.767 31.2249 112.814 31.1538 112.814 31.0627C112.814 30.9971 112.792 30.9425 112.746 30.8988C112.705 30.855 112.624 30.815 112.505 30.7786C112.385 30.7421 112.208 30.7021 111.972 30.6583C111.75 30.6146 111.559 30.5563 111.403 30.4834C111.246 30.4106 111.128 30.3195 111.05 30.2102C110.971 30.0973 110.932 29.9624 110.932 29.8058C110.932 29.6637 110.982 29.5271 111.081 29.3959C111.184 29.2648 111.334 29.1573 111.533 29.0735C111.731 28.986 111.979 28.9423 112.276 28.9423C112.502 28.9423 112.701 28.9678 112.87 29.0188C113.043 29.0662 113.188 29.1281 113.303 29.2046C113.419 29.2775 113.506 29.354 113.563 29.4342C113.625 29.5107 113.658 29.5781 113.662 29.6364C113.666 29.6728 113.654 29.7038 113.625 29.7293C113.597 29.7548 113.563 29.7675 113.526 29.7675H112.975C112.955 29.7675 112.936 29.7657 112.919 29.7621C112.903 29.7548 112.888 29.7457 112.876 29.7348C112.826 29.7056 112.775 29.6728 112.721 29.6364C112.672 29.5963 112.612 29.5617 112.542 29.5325C112.472 29.5034 112.38 29.4888 112.269 29.4888C112.133 29.4888 112.028 29.5161 111.953 29.5708C111.884 29.6218 111.849 29.6874 111.849 29.7675C111.849 29.8186 111.867 29.8659 111.904 29.9096C111.941 29.9533 112.017 29.9934 112.133 30.0299C112.249 30.0663 112.424 30.1045 112.659 30.1446C112.94 30.1883 113.163 30.2539 113.328 30.3414C113.493 30.4288 113.611 30.5308 113.681 30.6474C113.755 30.7603 113.792 30.8824 113.792 31.0135C113.792 31.1848 113.735 31.3378 113.619 31.4726C113.503 31.6037 113.334 31.7076 113.112 31.7841C112.892 31.8569 112.622 31.8934 112.3 31.8934ZM115.86 31.8934C115.517 31.8934 115.231 31.8442 115 31.7459C114.769 31.6438 114.591 31.4999 114.467 31.3141C114.348 31.1283 114.281 30.9115 114.269 30.6638C114.265 30.5909 114.263 30.5089 114.263 30.4179C114.263 30.3231 114.265 30.2412 114.269 30.1719C114.281 29.9205 114.352 29.7038 114.479 29.5216C114.608 29.3358 114.787 29.1937 115.018 29.0954C115.25 28.9933 115.53 28.9423 115.86 28.9423C116.186 28.9423 116.465 28.9933 116.696 29.0954C116.927 29.1937 117.107 29.3358 117.235 29.5216C117.363 29.7038 117.433 29.9205 117.445 30.1719C117.453 30.2412 117.458 30.3231 117.458 30.4179C117.458 30.5089 117.453 30.5909 117.445 30.6638C117.433 30.9115 117.365 31.1283 117.241 31.3141C117.121 31.4999 116.946 31.6438 116.715 31.7459C116.483 31.8442 116.199 31.8934 115.86 31.8934ZM115.86 31.2922C116.063 31.2922 116.215 31.2376 116.318 31.1283C116.422 31.0153 116.477 30.8514 116.486 30.6365C116.49 30.5818 116.492 30.5089 116.492 30.4179C116.492 30.3268 116.49 30.2539 116.486 30.1993C116.477 29.988 116.422 29.8258 116.318 29.7129C116.215 29.5999 116.063 29.5435 115.86 29.5435C115.658 29.5435 115.503 29.5999 115.396 29.7129C115.292 29.8258 115.237 29.988 115.229 30.1993C115.224 30.2539 115.223 30.3268 115.223 30.4179C115.223 30.5089 115.224 30.5818 115.229 30.6365C115.237 30.8514 115.292 31.0153 115.396 31.1283C115.503 31.2376 115.658 31.2922 115.86 31.2922ZM119.288 31.8934C119.048 31.8934 118.836 31.846 118.65 31.7513C118.468 31.6529 118.326 31.5127 118.223 31.3305C118.124 31.1447 118.074 30.9206 118.074 30.6583V29.1336C118.074 29.0935 118.089 29.0607 118.117 29.0352C118.147 29.0097 118.182 28.997 118.223 28.997H118.879C118.925 28.997 118.961 29.0097 118.991 29.0352C119.019 29.0607 119.034 29.0935 119.034 29.1336V30.6255C119.034 31.0336 119.236 31.2376 119.64 31.2376C119.834 31.2376 119.987 31.1848 120.099 31.0791C120.214 30.9698 120.272 30.8186 120.272 30.6255V29.1336C120.272 29.0935 120.287 29.0607 120.315 29.0352C120.344 29.0097 120.381 28.997 120.427 28.997H121.083C121.124 28.997 121.159 29.0097 121.189 29.0352C121.217 29.0607 121.232 29.0935 121.232 29.1336V31.7021C121.232 31.7422 121.217 31.775 121.189 31.8005C121.159 31.826 121.124 31.8387 121.083 31.8387H120.476C120.431 31.8387 120.394 31.826 120.365 31.8005C120.336 31.775 120.322 31.7422 120.322 31.7021V31.489C120.214 31.6202 120.076 31.7203 119.907 31.7896C119.738 31.8588 119.531 31.8934 119.288 31.8934ZM122.16 31.8387C122.118 31.8387 122.083 31.826 122.054 31.8005C122.026 31.775 122.011 31.7422 122.011 31.7021V29.1336C122.011 29.0972 122.026 29.0662 122.054 29.0407C122.083 29.0115 122.118 28.997 122.16 28.997H122.767C122.808 28.997 122.843 29.0115 122.872 29.0407C122.905 29.0662 122.921 29.0972 122.921 29.1336V29.3522C123.024 29.2392 123.15 29.1518 123.299 29.0899C123.451 29.0279 123.627 28.997 123.825 28.997H124.091C124.133 28.997 124.168 29.0097 124.197 29.0352C124.225 29.0607 124.24 29.0935 124.24 29.1336V29.6036C124.24 29.6436 124.225 29.6764 124.197 29.702C124.168 29.7274 124.133 29.7402 124.091 29.7402H123.546C123.365 29.7402 123.222 29.7858 123.119 29.8768C123.016 29.9643 122.965 30.0899 122.965 30.2539V31.7021C122.965 31.7422 122.95 31.775 122.921 31.8005C122.892 31.826 122.855 31.8387 122.809 31.8387H122.16ZM126.095 31.8934C125.794 31.8934 125.528 31.8442 125.297 31.7459C125.07 31.6475 124.89 31.5054 124.758 31.3196C124.626 31.1301 124.554 30.9043 124.541 30.6419C124.537 30.5836 124.535 30.5108 124.535 30.4233C124.535 30.3322 124.537 30.2576 124.541 30.1993C124.554 29.9333 124.624 29.7074 124.752 29.5216C124.884 29.3321 125.066 29.1882 125.297 29.0899C125.528 28.9915 125.794 28.9423 126.095 28.9423C126.372 28.9423 126.607 28.977 126.801 29.0461C126.995 29.1117 127.154 29.1955 127.278 29.2976C127.402 29.3995 127.493 29.507 127.55 29.62C127.613 29.7293 127.645 29.8258 127.65 29.9096C127.654 29.9461 127.639 29.9789 127.606 30.008C127.577 30.0335 127.542 30.0462 127.501 30.0462H126.838C126.797 30.0462 126.764 30.0371 126.739 30.0189C126.719 29.9971 126.698 29.9679 126.678 29.9315C126.62 29.804 126.545 29.7129 126.454 29.6582C126.364 29.6036 126.25 29.5763 126.114 29.5763C125.928 29.5763 125.782 29.6291 125.674 29.7348C125.567 29.8404 125.51 30.0043 125.501 30.2266C125.497 30.3687 125.497 30.498 125.501 30.6146C125.514 30.8405 125.571 31.0044 125.674 31.1065C125.782 31.2084 125.928 31.2595 126.114 31.2595C126.258 31.2595 126.374 31.2321 126.461 31.1775C126.548 31.1228 126.62 31.0318 126.678 30.9043C126.694 30.8678 126.715 30.8405 126.739 30.8223C126.764 30.8004 126.797 30.7895 126.838 30.7895H127.501C127.542 30.7895 127.577 30.804 127.606 30.8332C127.639 30.8587 127.654 30.8896 127.65 30.9261C127.645 30.988 127.625 31.0609 127.587 31.1447C127.555 31.2285 127.499 31.3141 127.42 31.4015C127.346 31.489 127.249 31.5709 127.129 31.6475C127.01 31.7203 126.863 31.7805 126.69 31.8278C126.521 31.8715 126.323 31.8934 126.095 31.8934ZM129.693 31.8934C129.219 31.8934 128.841 31.7768 128.56 31.5437C128.284 31.3105 128.137 30.9716 128.12 30.5271C128.12 30.498 128.12 30.4598 128.12 30.4124C128.12 30.3614 128.12 30.3213 128.12 30.2921C128.137 30.0116 128.209 29.7711 128.337 29.5708C128.465 29.3667 128.645 29.2119 128.876 29.1063C129.107 28.997 129.377 28.9423 129.687 28.9423C130.034 28.9423 130.322 29.0061 130.554 29.1336C130.789 29.2575 130.964 29.4287 131.08 29.6473C131.2 29.8623 131.26 30.11 131.26 30.3905V30.5162C131.26 30.5527 131.243 30.5836 131.21 30.6091C131.181 30.6346 131.146 30.6474 131.105 30.6474H129.08C129.08 30.651 129.08 30.6583 129.08 30.6693C129.08 30.6765 129.08 30.6838 129.08 30.6911C129.085 30.8077 129.109 30.9152 129.154 31.0135C129.204 31.1083 129.272 31.1848 129.359 31.2431C129.45 31.3014 129.557 31.3305 129.681 31.3305C129.784 31.3305 129.868 31.3178 129.935 31.2922C130.001 31.2668 130.054 31.2358 130.096 31.1993C130.141 31.1629 130.174 31.1319 130.195 31.1065C130.232 31.07 130.261 31.0481 130.281 31.0409C130.306 31.0299 130.343 31.0245 130.393 31.0245H131.036C131.078 31.0245 131.111 31.0354 131.135 31.0573C131.165 31.0755 131.177 31.1028 131.173 31.1393C131.169 31.1975 131.134 31.2704 131.067 31.3578C131.006 31.4416 130.913 31.5254 130.789 31.6092C130.665 31.6894 130.51 31.7568 130.325 31.8114C130.143 31.8661 129.933 31.8934 129.693 31.8934ZM129.08 30.1501H130.294V30.1392C130.294 30.008 130.269 29.8951 130.219 29.8003C130.174 29.702 130.106 29.6254 130.015 29.5708C129.925 29.5161 129.815 29.4888 129.687 29.4888C129.559 29.4888 129.45 29.5161 129.359 29.5708C129.268 29.6254 129.198 29.702 129.148 29.8003C129.103 29.8951 129.08 30.008 129.08 30.1392V30.1501ZM133.147 31.8934C132.891 31.8934 132.671 31.8679 132.485 31.8169C132.303 31.7622 132.155 31.6966 132.04 31.6202C131.928 31.5437 131.843 31.4671 131.785 31.3906C131.732 31.3105 131.703 31.2431 131.699 31.1884C131.695 31.1484 131.709 31.1156 131.742 31.09C131.775 31.0646 131.808 31.0518 131.841 31.0518H132.442C132.454 31.0518 132.467 31.0536 132.479 31.0573C132.491 31.0609 132.504 31.07 132.516 31.0846C132.57 31.1174 132.625 31.1556 132.683 31.1993C132.741 31.2394 132.807 31.274 132.881 31.3032C132.96 31.3323 133.057 31.3469 133.173 31.3469C133.309 31.3469 133.424 31.3232 133.519 31.2759C133.614 31.2249 133.662 31.1538 133.662 31.0627C133.662 30.9971 133.639 30.9425 133.593 30.8988C133.552 30.855 133.471 30.815 133.352 30.7786C133.232 30.7421 133.055 30.7021 132.819 30.6583C132.597 30.6146 132.407 30.5563 132.25 30.4834C132.093 30.4106 131.975 30.3195 131.897 30.2102C131.819 30.0973 131.78 29.9624 131.78 29.8058C131.78 29.6637 131.829 29.5271 131.928 29.3959C132.031 29.2648 132.182 29.1573 132.38 29.0735C132.578 28.986 132.826 28.9423 133.123 28.9423C133.35 28.9423 133.548 28.9678 133.717 29.0188C133.891 29.0662 134.035 29.1281 134.151 29.2046C134.266 29.2775 134.353 29.354 134.41 29.4342C134.473 29.5107 134.505 29.5781 134.509 29.6364C134.514 29.6728 134.501 29.7038 134.473 29.7293C134.444 29.7548 134.41 29.7675 134.374 29.7675H133.822C133.802 29.7675 133.784 29.7657 133.767 29.7621C133.75 29.7548 133.736 29.7457 133.723 29.7348C133.674 29.7056 133.622 29.6728 133.569 29.6364C133.519 29.5963 133.459 29.5617 133.389 29.5325C133.319 29.5034 133.228 29.4888 133.116 29.4888C132.98 29.4888 132.875 29.5161 132.801 29.5708C132.731 29.6218 132.696 29.6874 132.696 29.7675C132.696 29.8186 132.714 29.8659 132.751 29.9096C132.788 29.9533 132.865 29.9934 132.98 30.0299C133.096 30.0663 133.272 30.1045 133.507 30.1446C133.788 30.1883 134.01 30.2539 134.175 30.3414C134.341 30.4288 134.458 30.5308 134.528 30.6474C134.603 30.7603 134.64 30.8824 134.64 31.0135C134.64 31.1848 134.582 31.3378 134.467 31.4726C134.351 31.6037 134.181 31.7076 133.959 31.7841C133.74 31.8569 133.47 31.8934 133.147 31.8934Z" fill="#0052CC"/>
</g>
<defs>
<filter id="filter0_d_138_1783" x="-0.445069" y="0" width="51.847" height="48.7986" filterUnits="userSpaceOnUse" color-interpolation-filters="sRGB">
<feFlood flood-opacity="0" result="BackgroundImageFix"/>
<feColorMatrix in="SourceAlpha" type="matrix" values="0 0 0 0 0 0 0 0 0 0 0 0 0 0 0 0 0 0 127 0" result="hardAlpha"/>
<feOffset dy="2.16273"/>
<feGaussianBlur stdDeviation="1.08136"/>
<feComposite in2="hardAlpha" operator="out"/>
<feColorMatrix type="matrix" values="0 0 0 0 0 0 0 0 0 0 0 0 0 0 0 0 0 0 0.25 0"/>
<feBlend mode="normal" in2="BackgroundImageFix" result="effect1_dropShadow_138_1783"/>
<feBlend mode="normal" in="SourceGraphic" in2="effect1_dropShadow_138_1783" result="shape"/>
</filter>
<clipPath id="clip0_138_1783">
<rect width="146" height="47" fill="white"/>
</clipPath>
</defs>
</svg>
